<?xml version="1.0" encoding="UTF-8"?> <!-- Generator: Adobe Illustrator 18.1.1, SVG Export Plug-In . SVG Version: 6.00 Build 0) --> <svg xmlns="http://www.w3.org/2000/svg" xmlns:xlink="http://www.w3.org/1999/xlink" id="Layer_1" x="0px" y="0px" viewBox="0 0 113.4 113.4" xml:space="preserve"> <path fill="#FFFFFF" d="M112,56.7c0,30.5-24.8,55.3-55.3,55.3C26.2,112,1.4,87.2,1.4,56.7c0-30.5,24.8-55.3,55.3-55.3 C87.2,1.4,112,26.2,112,56.7"></path> <g> <rect x="59.4" y="53.6" fill="#B82B30" width="0.1" height="0.1"></rect> <path fill="#B82B30" d="M97.5,62.5v-0.1c-0.2-0.2-1,0.3-1.3,0.4v-0.1c-0.6-0.1-1.8,0.2-2.2-0.3c-0.2-0.2-1.1-0.2-1.4-0.3 c-1-0.2-1.7-0.7-2.7-0.5c-0.1,0-3-0.8-3.3-0.9c-0.8-0.3-4.6-0.7-7.4-1.7c-1-0.4-3.2-0.6-3.9-1c-0.2-0.1-2.7-0.9-3.5-1.3l-0.7-0.1 v-0.2c-0.8-0.8-2-0.7-3-0.5c0.8-2.9,2.4-3.7,1.7-7.8c-0.1-0.7-0.5-1.3-0.7-2h-0.1c0-1.2-4.9-4.2-8.3-0.7c-0.5,0.5-1.1,1.5-1.1,2.3 h-0.1c0,1.6-0.2,2.6,0.1,4.3c0.1,0.5,0.1,1,0.1,1.5l-0.2,0.2v0.2l0.3,0.1c0,0.3-0.1,0.6,0,0.8l-0.3,0.1c0,0.5,0.3,0.8,0.6,1 l-0.1,0.1l0.1,0.2c-1.9-0.4-1.4,0.6-2.3,0.4L57.6,56h-0.3l-0.3,0.3h-0.7c0-0.6-0.3-2,0.1-2.3l-0.1-0.5h0.3c1.4-2.8,1.3-8.4,1.3-8.4 c0.4-1.7,0.7-3.4,0.9-5.1c0.1-1,0.8-1.3,0.5-2.1h-0.2c0-0.2-0.1-0.4-0.1-0.6c2.3,0.9,13.4,4.1,16.2,4.8c4.4,1.2,8.8,2.8,13.2,3.9 c1.6,0.4,6.8,2,10.7,3.1c0-0.2-0.1-0.4-0.1-0.6c-5.8-1.6-11.5-3.5-17.2-5c-5.5-1.5-11.8-3.6-17.4-5.2c-1.1-0.3-4.4-1.5-5.3-1.5v0.1 h-0.1c0-0.5-0.1-1.7-0.5-2h-0.6c0,0.5,0.2,1.1,0.3,1.6c-0.3-0.1-0.5-0.2-0.9-0.2c0-0.5-0.1-1-0.2-1.4c-0.8-0.2-1.7-0.2-2.5-0.2 l0.1,2.9l-0.1,0c-0.1-0.3-0.1-0.4-0.3-0.6C54,37,54,37.2,54,37.5L54,37.2l-0.2,0c0-1-0.5-0.9-0.5,0.4c-0.4-0.3-0.2-2.2-0.3-2.5 c0.4,0,0.7,0.1,1,0.2c0-0.5-0.3-0.1-0.3-0.9C50.4,34,34.4,29.1,30,27.8c-1.3-0.4-2.6-0.8-3.8-1.1c-0.2,0.2-0.3,0.3-0.5,0.5 c4.4,1.2,14.2,4.1,16,4.7c2.7,0.9,6,1.8,8.8,2.5c0,0.3,2,1,2.3,1c0,0.7,0,3.4,0.5,3.9c0,1.8-0.2,0.5,0.1,2.7 c0.1,0.4,0.1,0.9,0.2,1.3h0.1c0,0.4,0.1,0.5,0.3,0.8h0.1V44h0.1c0,1.6,0.3,2.5,0.3,4.9c0,1.6-0.4,6.2-1.5,7.3v0.1h-0.1 c-0.1,0.2-0.2,0.3-0.4,0.4l0,0.1c-0.9,0-2.3,1.9-2.3,2.5c-0.4,0-1.3,0.5-2.3,0.6c-0.5,0.1-2,0.1-2,0.8c-0.2-0.1-0.5-0.1-0.7,0.1 c-1.6,0-3.8,1-5.5,1.3c-0.6,0.1-2.8,1.6-3.5,1.1c-1-0.7-2.3,0.5-2.9,0.7c-1,0.3-0.8,0.7-2.8,0.9c-0.5,0-0.7,0.3-1.1,0.5v0.1 L29,65.8V66c-0.2,0-0.4,0-0.5,0.3h-0.3l-0.3,0.3V67l0.2,0.2c0,1.1-0.9,2,0.2,2.8c0.3,0.2,0.3,1.1,1.3,0.6c0.4-0.2,0.5-0.7,0.7-1 c-0.3,0.6,0,1.1,0.7,0.9c0.3-0.6,1.4-0.6,1.7-1.3c0.5-0.1,0.8-0.5,1.2-0.7v-0.1c0.5,0,1-0.3,1.5-0.1l0.1,0.2 c0.5,0.1,0.8,0.3,1.3,0.1v-0.1h0.1c0-0.2-0.1-0.4-0.1-0.7h-0.3v-0.1h-0.3v-0.1l-0.2-0.3c2.2-0.7,1.8-0.6,4.3-0.8 c0.6,0,1.5-0.5,1.9-0.5c1.3,0,1-0.1,2.5,0c0.7,0,1.1-0.2,1.7-0.5v-0.1c0.4,0,0.5-0.2,0.8,0c0.3,0.2,1,0.1,1.3,0l0-0.1l0.1,0.1h-0.1 c-0.5,0.2-1.1,0.7-1.5,1.1v0.1l-1.3,1c-0.5,0.4-1.1,0.7-1.7,1v0.1c-0.2,0-3.2,2.4-3.2,2.8h-0.1c-0.2,0.3-0.8,0.5-1.2,1.2 c-0.1,0.1-0.7,0.7-1,1.1c-0.6,0.9-1.6,2-2.5,2.6c-0.4,0.3-1,0.5-1.3,0.8v0.1c-0.2,0-0.4,0.1-0.6,0.2v0.1l-0.3,0.1V78 c-1.1,0,0.4,1.1-2.9,0.1c-1.3-0.4-2.7,0.2-3.9-0.5c-1.6-1-4,0.6-3.2,4.5c0.2,1,0.9,1.6,1.6,2.3h0.1v0.1l0.7,0.7h0.1v0.1l0.3,0.2 h0.1v0.1c0.5,0.2,2.1,1.5,2.3,2H29v0.1l0.3,0.1v0.1l0.3,0.3l-0.1,0.1v0.3c0.2,0,0.4,0,0.5-0.1c1.5,0.8,1.2-0.1,2.8,1.1 c1,0.7,2.4,0,3.2-1.1l0.2-0.2v-0.1c0.5,0,0.7-0.9,1.3-0.9c0.3,0.3,1.8,1.1,2.4,0.5c0.3-0.3,0.8-0.5,1.1-0.9 c0.3-0.3,1.3-1.3,1.5-1.4v-0.1c0.4,0,1.2-1,1.5-1.3v-0.1h0.1c0.6-0.6,1.8-2,2.5-2.2v-0.1c0.3,0,0.9-0.4,0.9-0.7 c0.2-0.2,0.3-0.5,0.5-0.7v-0.1c0.3,0,1-1.2,1.2-1.4h0.5V79c1.4,1.4,5.1,0.2,6.5-0.5c0.1,0,1.6-0.5,2.7-1c0.3-0.2,1.8-0.8,2.1-0.8 c0.1-0.2,0.2-0.2,0.4-0.3c0.1-0.1,1.8-2,2.1-2.5l0.2-0.3c0.5-0.1,1.5-0.1,1.5-0.8h0.1c0.1-0.3,0.2-0.3,0.5-0.4 c0-0.8-0.6-1.5-0.6-2.7c0.4-0.4,1-0.8,1.4-1.2v-0.1c0.3,0,0.8-0.8,0.8-1.1h0.1c0.6-0.6,1.1-1.2,1.8-1.7c0.3-0.2,0.6-0.7,0.8-1 c0.6-0.2,1.1-0.6,1.1-1.3c0,0,1.6,0,2.4,0.1c2.7,0.5,3.3,0,5.8,1.3c2.2,1.1,3.6-0.4,4,0c0.6,0.6,3.8,0.5,4.8,0.8 c1.2,0.4,3.4,0.5,4.5,0.1c-0.1,0.5-0.1,0.9-0.1,1.3h-0.1l-0.1,0.5c0.3,0.1,0.8,0.1,0.8-0.3c0.3,0,0.6,0.1,0.9,0.1l0.2-0.4 c0.2-0.1,0.5-0.1,0.7,0v0.5c0.2,0.2,1.4,0.4,2.7,0.7c0.5-1.8,0.9-3.6,1.1-5.4C98.6,62.5,98,62.5,97.5,62.5z M30.6,69.4L30.6,69.4 L30.6,69.4L30.6,69.4z M31.5,68.6l-0.2,0.2l-0.5,0.4l0,0.1l-0.1-0.1h0.1v-0.1C31.1,69.1,31.3,68.8,31.5,68.6L31.5,68.6L31.5,68.6 L31.5,68.6z M36.1,88.4c-0.6,1.6-3,1.9-4,0.5c0.1-0.4,1.7-0.6,1.3-2.1c-0.4,0-1.2-1-1.7-1.1v-0.2h-0.3v-0.3 c-0.7-0.2-1.2-0.4-1.5-0.7l0.2-0.2l-0.2-0.1v0.2l-0.1,0c-0.2-0.4-0.1-1.3-0.4-1.4l-0.2-0.5h0.3c0.6,0.1,0.6,0.3,1.1,0.3 c0.1,0.3,1.6,0.9,2.1,0.9c0,0.1,2,2,2.3,2.9h0.2v0.1c0.2,0,1,0.1,1.1,0.4l0.8,0C36.6,87.7,36.3,87.8,36.1,88.4z M35.7,82.8l0.7,0.3 c0,0.4,0.1,0.5,0.6,0.5l0.1-0.6l0.8,0.5c0,0.4,0.1,0.6,0.2,0.9c-0.6,0.2,0.2,0.5,0.5,0.6v0.6h-0.1v0.1h-0.1 C38,85.1,35.8,83.2,35.7,82.8z M39.3,88c-0.2,0-0.5,0-0.6-0.1l-0.1-0.2L38,87.4c-0.1-0.5,1-0.6,1.3-5c0-0.6,0.2-1.2,0.2-1.9 c0-0.2-0.4-0.3-0.4-0.8h-0.2c0-0.4,0-0.5-0.4-0.5c0-0.7-0.7-0.5-0.9-1c-0.4,0-0.5,0.1-0.5-0.2c0.5-0.1,0.8,0,1.3,0.1v0.2 C39.5,78.3,42.5,88,39.3,88z M58.1,37c0,0.4,0.2,0.9,0.3,1.3l-1.1,0.1c-0.1-0.5-0.1-1.1-0.1-1.6C57.4,36.9,57.7,37,58.1,37z M54.5,43.2c0.4-0.7-0.4-2.8-0.4-3.7c0.6,0.4,1.6,0.8,1.6-0.2l0.4,0.1L56,40c-0.2,1-0.5,2-0.5,3.1C55.1,43.1,54.8,43,54.5,43.2z M56,43.8c0.3-0.5,0.3-1.2,0.3-1.8h0.1c0,0.6-0.1,1.3-0.1,1.9c0,1.5,0.1,3.1-0.7,4.5C55.8,47.3,55.6,44.4,56,43.8z M57,46.4 c0.1,0.6,0.2,1.2,0.1,1.8c-0.1,0.5-0.9,3.6-0.9,3.8l-0.3,0C56.6,50.2,56.9,48.4,57,46.4z"></path> </g> </svg> 