<?xml version="1.0" encoding="UTF-8"?> <!-- Generator: Adobe Illustrator 18.1.1, SVG Export Plug-In . SVG Version: 6.00 Build 0) --> <svg xmlns="http://www.w3.org/2000/svg" xmlns:xlink="http://www.w3.org/1999/xlink" id="Layer_1" x="0px" y="0px" viewBox="0 0 113.4 113.4" xml:space="preserve"> <path fill="#FFFFFF" d="M112,56.7c0,30.5-24.8,55.3-55.3,55.3C26.2,112,1.4,87.2,1.4,56.7S26.2,1.4,56.7,1.4 C87.2,1.4,112,26.2,112,56.7"></path> <path fill="#B82B30" d="M100.1,56.7c0-24-19.4-43.4-43.4-43.4c-1.4,0-2.8,0.1-4.2,0.2c0,1.1,0.2,1.6,0.8,2.6c0.5,0.8,1,1.5,1.4,2.3 c0.8,1.3,1.3,2.7,1.5,4.1c0.1,0.3,0.1,0.7,0.2,1c0.1,0.2,0.2,0.4,0.2,0.6c0,0.3,0,0.7-0.1,1c-0.1,0.3-0.3,0.4-0.5,0.7 c-0.1,0.2-0.3,0.4-0.4,0.6c-0.1,0.2-0.2,0.3-0.2,0.6c0,0.1,0,0.3,0,0.4c-0.1,0.1-0.1,0.2-0.1,0.3c0,0.2-0.1,0.4-0.1,0.7 c-0.1,0.5-0.2,0.9-0.2,1.4c0,0.4,0,0.7-0.1,0.9c-0.2,0.3-0.5,0.5-0.8,0.8c-0.6,0.6-1,1.4-1.5,2c-0.1,0.1-0.2,0.2-0.3,0.3 c0,0,0,0,0,0c0,0-0.1,0-0.1-0.1c0,0,0,0,0.1,0c0,0,0,0,0,0l0,0c0,0-0.1,0-0.1,0c0,0,0,0-0.1,0c0,0,0.1,0,0.1,0c0,0,0.1,0,0.1,0 c0,0,0,0,0,0l0,0c0,0-0.1,0-0.1,0l0,0c0,0,0.1,0,0.1,0c0,0,0.1,0,0.1,0c0,0,0,0,0,0l0,0c0,0-0.1,0-0.1,0l0,0c0,0,0,0,0,0l0,0 c0,0-0.1,0-0.1,0c0,0,0,0,0,0l0,0c0,0,0,0,0,0c0,0,0,0-0.1,0l0,0c0,0,0,0,0,0l0,0c0,0,0.1,0,0.1,0c0,0,0,0,0,0l0,0c0,0-0.1,0-0.1,0 c-0.1,0-0.1,0-0.2,0c0.1,0,0.1,0,0.1,0c0,0,0.1,0,0.1,0c0,0,0,0,0,0l0,0c0,0,0,0-0.1,0c-0.1,0-0.2,0-0.2,0c0,0-0.1,0-0.1,0 c0,0,0,0-0.1-0.1c0,0,0.1,0,0.1,0c0,0,0,0,0.1,0c0,0,0,0,0.1,0l0,0c0,0,0,0,0,0c0,0,0,0,0.1,0h0c0.1,0,0.1,0,0.2,0c0,0,0,0,0.1,0 l-0.1,0c0,0-0.1,0-0.1-0.1c0,0,0,0,0,0c0,0,0,0,0,0c0,0,0,0,0.1,0l-0.1,0c0.1,0,0-0.1-0.1-0.1c0,0,0,0,0,0c0,0,0,0-0.1,0l0,0l0.1,0 c0,0-0.1,0-0.1,0l0,0l-0.1,0l0,0c0.1,0,0.1,0,0.2,0c0,0,0,0,0.1,0l0,0c0,0-0.1,0-0.1-0.1c-0.1-0.1-0.2-0.1-0.3-0.2 c0.1,0,0.2,0,0.3,0.1c0.1,0,0.1,0,0.2,0c0,0,0,0,0.1,0l0,0c0,0-0.1,0-0.1-0.1c-0.2-0.1-0.3-0.1-0.5-0.2c0,0,0,0-0.1,0c0,0,0,0-0.1,0 c0,0,0.1,0,0.1,0c0,0,0.1,0,0.1,0c0,0,0.1,0,0.1,0h0l0,0c0,0-0.1,0-0.1,0l0,0c0.1,0,0.1,0,0.2,0c0.1,0,0.1,0,0.2,0c0,0,0,0,0.1,0 l0,0c0,0-0.1,0-0.1,0l0.1,0c0,0,0,0,0.1,0l0,0c0,0-0.1,0-0.1,0l-0.1,0l0,0l0.1,0l-0.1,0l0,0l-0.1,0l0,0c0,0,0.1,0,0.1,0c0,0,0,0,0,0 l0,0c0,0-0.1,0-0.1,0c-0.1,0-0.2,0-0.3-0.1c0.1,0,0.2,0,0.3,0c0,0,0.1,0,0.1,0c0,0,0,0,0,0l0,0c0,0-0.1,0-0.1,0c-0.1,0-0.1,0-0.2,0 c0,0,0.1,0,0.1,0c-0.1,0-0.1,0-0.2,0c0.1-0.1,0.3-0.1,0.4-0.2c-0.1,0.1-0.2,0.1-0.4,0.1c0,0,0,0,0,0c0,0,0,0,0,0c0,0,0,0,0,0 c0,0,0,0,0,0l0.1,0l0,0l0,0c0,0-0.1,0-0.1,0c0,0,0-0.1,0.1-0.1l0.1,0l0,0l0,0c0,0,0,0-0.1,0c0,0,0,0,0,0l0,0c0,0,0.1-0.1,0.1-0.1 l0.1-0.1l0,0l0,0c0,0-0.1,0-0.1,0l0,0c0,0,0,0,0,0l0,0c0,0-0.1,0-0.1,0l-0.1,0l0,0l0,0l-0.1,0l0,0l0,0l0,0l0.1-0.1l0,0l0,0 c0,0-0.1,0-0.1,0c-0.1,0-0.2,0.1-0.3,0.1c0.1,0,0.1-0.1,0.2-0.2l0.1-0.1c0,0,0.1,0,0.1,0c0.1,0,0.1-0.1,0.2-0.1l0.1,0l-0.1,0 c-0.1,0-0.1,0-0.2,0c-0.1,0-0.2,0.1-0.3,0.1l0,0l0,0c0.1-0.1,0.3-0.1,0.4-0.2c0.1,0,0.1-0.1,0.2-0.1l0.1,0l-0.1,0 c-0.1,0-0.1,0-0.2,0.1l-0.1,0l0.2-0.1l0.2-0.1l0.1,0l-0.1,0c-0.1,0-0.1,0.1-0.2,0.1l0.1,0c0,0,0,0,0.1,0l-0.1,0 c-0.1,0-0.1,0.1-0.2,0.1l-0.1,0l0,0l0.1-0.1l-0.1,0.1l0,0l-0.1,0l0,0c0.1,0,0.1-0.1,0.2-0.1l0.1,0l-0.1,0c-0.1,0-0.1,0.1-0.2,0.1 c-0.1,0.1-0.3,0.1-0.4,0.2c0.1-0.1,0.2-0.2,0.3-0.3c0,0,0.1-0.1,0.1-0.1l0,0l-0.1,0c-0.1,0-0.1,0.1-0.2,0.1 c-0.1,0.1-0.2,0.1-0.4,0.2l0,0l0.1,0L50,31.3l0,0l0,0l0,0c0,0,0.1-0.1,0.1-0.1l0,0l0,0L50,31.3c-0.1,0.1-0.2,0.1-0.3,0.2 c0.1-0.1,0.1-0.1,0.2-0.2l0.1-0.1l0,0l0,0l-0.1,0.1c-0.1,0.1-0.3,0.2-0.4,0.3c0,0,0,0-0.1,0.1c0,0,0,0-0.1,0c0,0,0-0.1,0-0.1 c0.1-0.1,0.1-0.1,0.2-0.1c0,0-0.1,0-0.1,0c0.1-0.1,0.1-0.2,0.2-0.2c-0.1,0.1-0.3,0.2-0.4,0.3c0,0,0,0,0,0c0.1,0,0,0,0.1-0.1 c-0.1,0.1-0.1,0-0.1,0c0.1-0.1,0.1-0.2,0.2-0.3c0,0-0.1,0.1-0.1,0.1c0-0.1,0.1-0.2,0.1-0.3c-0.1,0.2-0.2,0.5-0.3,0.7 c0,0-0.1,0.1-0.1,0.1c0,0,0,0-0.1-0.1c0.1-0.2,0.1-0.1,0.1-0.2c0,0,0,0,0,0l0-0.1l0,0l0,0l0,0.1c0,0,0,0,0,0c0,0,0,0,0,0l0-0.1 l0-0.1l0,0l0,0l0,0.1l0,0l0-0.1l0-0.1l0,0l0,0c0,0,0,0.1-0.1,0.1l0,0l0,0l0,0c0,0,0,0.1-0.1,0.1l0,0l0,0l0,0l0,0.1l0,0l0,0l0,0 l0-0.1l0,0l0,0l0,0.1c0,0.1-0.1,0.1-0.1,0.2l0-0.2l0-0.1l0,0l0,0l0,0.1c0,0.1-0.1,0.2-0.1,0.2c-0.1,0.1-0.2,0.1-0.2,0.2c0,0,0,0,0,0 c0,0,0,0,0,0c0-0.1,0.1-0.2,0.1-0.3c0,0,0-0.1,0-0.1l0,0l0,0c0,0,0,0.1,0,0.1c0,0-0.1,0.1-0.1,0.1c0-0.1,0.1-0.1,0.1-0.2 c0,0,0-0.1,0-0.1l0,0l0,0l0,0.1l0,0c0,0,0-0.1,0-0.1c0,0,0-0.1,0-0.1l0,0l0,0l-0.1,0.1l0,0l0,0l0,0l-0.1,0.1l0,0l0,0l0,0 c0,0,0,0,0,0.1l0,0l0,0l0,0c0,0,0-0.1,0-0.1l0,0l0,0l0,0.1c0,0,0,0.1,0,0.1c0,0,0,0,0,0c0,0,0,0,0,0c0,0,0,0,0,0c0,0,0,0,0,0l0,0 l0,0c0,0,0,0,0,0l0,0c0,0,0.1-0.1,0.1-0.1l0,0l0,0c0,0-0.1,0-0.1,0.1l0,0l0,0c0,0,0,0,0,0c-0.1,0-0.1,0.1-0.2,0.1 c0.1-0.1,0.1-0.1,0.2-0.2c0,0,0.1-0.1,0.1-0.1l0,0l0,0c0,0-0.1,0-0.1,0.1l0,0c0,0,0.1-0.1,0.1-0.1c0,0,0.1-0.1,0.1-0.1l0,0l0,0 c0,0-0.1,0-0.1,0.1c0,0,0,0,0,0l0,0l0,0c0,0-0.1,0.1-0.1,0.1c0,0,0,0-0.1,0l0,0c0,0,0,0,0,0c0,0-0.1,0-0.1,0.1l0,0c0,0,0,0,0,0l0,0 c0,0,0.1-0.1,0.1-0.1l0,0l0,0c0,0-0.1,0.1-0.1,0.1c-0.1,0.1-0.2,0.1-0.2,0.2c0,0,0,0,0-0.1c0.1-0.1,0.1-0.1,0.1-0.2c0,0,0,0,0.1-0.1 l0,0c0,0,0,0,0,0c0,0,0,0,0,0c0,0,0,0,0,0c0,0-0.2,0.2-0.2,0.1c0,0,0,0,0,0c0,0,0-0.1,0.1-0.1l0,0l0,0l-0.1,0.1c0,0,0,0,0,0 c0,0,0,0,0-0.1c0,0,0.1-0.1,0.1-0.1l0,0l0,0l-0.1,0.1l0,0l0,0l0,0l0,0c0,0,0,0,0,0c0,0-0.1,0.1-0.1,0.1c0,0,0,0,0,0l0,0l0,0 l-0.1,0.1c-0.1,0-0.1,0.1-0.1,0.1c0,0,0,0,0,0c0,0,0-0.1,0.1-0.1l0,0l0,0c0,0-0.1,0.1-0.1,0.1c0,0.1-0.1,0.1-0.1,0.2c0,0,0,0,0,0 l0.1-0.1l0,0l0,0c0,0,0,0,0,0c0,0,0,0,0,0l0-0.1l0,0l0,0l0,0.1c0,0,0,0,0,0l0,0c0,0,0,0,0,0c0,0,0-0.1,0-0.1l0-0.1l0,0l0,0l0,0.1 l0,0l0-0.1l0-0.1l0,0l0,0l0,0.1l0,0l0,0l0,0l0,0.1l0,0.1v0v0l0,0.1l0,0l0,0l0,0l0-0.1v0l0,0l0,0.1c0,0,0,0,0,0l0,0l0,0l0,0.1l0,0 l0-0.1c0,0,0-0.1,0-0.1l0,0l0,0l0,0.1l0,0l0,0l0,0v0l0,0l0,0l0,0.1l0,0.1l0,0l0-0.1l0,0.1l0,0l0,0l0,0c0,0,0-0.1,0-0.1l0,0l0,0 l0,0.1c0,0,0,0,0,0.1c0,0,0,0,0,0l0,0c0,0,0,0,0-0.1l0-0.1l0,0l0,0c0,0,0,0,0,0c0,0,0,0,0,0l0,0l0,0l0,0c0,0,0,0,0,0 c-0.1,0.1-0.1,0.2-0.2,0.3l0-0.1l0,0l0,0c0,0,0,0.1,0,0.1l0,0c0,0,0-0.1,0-0.1c0,0,0-0.1,0-0.1l0,0l0,0c0,0,0,0.1,0,0.1l0,0 c0,0,0,0,0,0l0,0c0,0,0,0.1,0,0.1l0,0l0,0l0,0l0,0.1l0,0l0,0l0,0l0-0.1l0,0l0,0c0,0,0,0.1,0,0.1c0,0.1-0.1,0.1-0.1,0.2c0,0,0,0,0,0 c0-0.1,0-0.1,0-0.2l0-0.1l0,0l0,0c0,0,0,0.1,0,0.1c0,0.1,0,0.1-0.1,0.2c0,0,0,0,0,0c0,0,0,0,0-0.1c0,0,0,0,0-0.1v0c0,0,0,0,0,0 c0,0,0,0,0,0.1c0,0,0,0,0,0.1c0,0,0,0,0,0c0,0,0,0,0,0c0,0,0,0,0,0l0,0l0,0l0,0c0,0,0,0,0,0c0,0,0,0,0-0.1l0,0l0,0l0,0.1l0,0 c0,0,0-0.1,0-0.1c0,0,0,0,0-0.1l0,0l0,0l0,0.1l0,0l0,0l0,0l0,0.1l0,0l0,0c0,0,0,0,0,0c0,0,0,0,0,0.1l0,0c0,0,0,0,0,0c0,0,0,0,0-0.1 l0,0c0,0,0,0,0-0.1l0,0l0,0l0,0.1l0,0c0,0,0,0,0,0c0,0,0-0.1,0-0.1c0-0.1,0-0.1,0-0.2l0-0.1l0,0.1l0,0.1l0-0.1l0-0.1l0,0.1l-0.1,0.2 l0,0.1l0,0c0,0,0,0,0-0.1c0,0,0,0.1,0,0.1l0,0l0,0.1l0,0c0,0,0-0.1,0-0.2l0-0.1l0,0l0,0.1c0,0.1,0,0.2,0,0.2c0,0,0,0,0,0 c0-0.1,0-0.1,0-0.2c0-0.1,0-0.1,0-0.2l0-0.1l0,0.1c0,0,0,0.1,0,0.2c0,0.1,0,0.2,0,0.3c-0.3,0.2-0.5,0.5-0.8,0.7c0,0,0,0-0.1,0l0,0 c0,0,0,0,0,0c0,0,0,0,0.1,0c0,0,0,0,0,0l0,0c0,0,0,0,0,0c0,0,0,0-0.1,0.1l0,0l0,0c0,0,0,0-0.1,0.1l0,0l0,0c0,0,0,0,0,0 c0,0-0.1,0-0.1,0l0,0l0,0l0.1,0c0,0,0,0,0,0l0,0l0,0l0,0c0,0,0,0,0,0c0,0.1-0.1,0.2-0.1,0.3l0,0c0,0,0,0,0,0c0,0,0,0,0,0.1h0l0,0 c0,0,0,0,0,0c0,0,0,0-0.1,0l0,0l0,0c0,0,0,0,0.1,0c0,0,0,0,0,0l0,0l0,0l0,0c0,0,0,0,0,0c0,0.1-0.1,0.2-0.1,0.3c0,0,0,0,0,0 c0,0,0,0,0,0c0,0,0,0,0,0c0,0,0,0-0.1,0l0,0l0,0l0.1,0c0,0,0,0.1,0,0.1c0,0,0,0-0.1,0l0,0l0,0l0.1,0c0,0,0,0,0,0c0,0,0,0,0,0 c0,0-0.1,0-0.1,0.1l0,0l0,0l0.1,0l0,0l0,0l0,0l0,0c0,0.1,0,0.1-0.1,0.2c-0.1,0.1-0.1,0.1-0.2,0.2c0,0-0.1,0.1-0.1,0.1l0,0l0,0 c0,0,0.1-0.1,0.1-0.1c0,0,0.1-0.1,0.2-0.1c0,0,0,0,0,0.1c0,0.1-0.1,0.1-0.1,0.2c0,0-0.1,0.1-0.1,0.1l0,0l0,0c0,0,0.1-0.1,0.1-0.1 l0,0c0,0.1-0.1,0.1-0.1,0.2c0,0.1-0.1,0.1-0.1,0.2l0,0.1l0,0c0,0,0.1-0.1,0.1-0.1c0,0,0,0,0,0l0,0.1c0,0,0,0,0,0.1l0,0 c0,0,0.1-0.1,0.1-0.1c0,0,0,0,0,0c-0.1,0.1-0.1,0.2-0.2,0.4c0.1-0.1,0.1-0.2,0.2-0.2c0,0,0,0.1,0,0.1c0,0.1,0,0.3,0,0.4 c0,0.2,0,0.4,0,0.6c0,0.1,0,0.1,0,0.2c0,0,0,0,0,0c0,0,0,0,0,0c0,0,0-0.1,0-0.2c0-0.1,0-0.2,0-0.3c0,0,0,0.1,0,0.1 c0,0.1,0,0.2,0,0.3c0,0.1,0,0.1,0,0.2c0,0,0,0,0,0.1c0,0,0,0,0-0.1c0,0,0-0.1,0-0.1c0,0,0,0,0,0.1c0,0.1,0,0.2,0,0.2c0,0,0,0,0,0 c0,0,0,0,0,0c0,0,0,0,0,0.1c0,0,0,0,0,0c0,0.2,0,0.3,0,0.5c0,0.1,0,0.1,0,0.2c0,0,0,0,0,0.1c0,0,0,0,0-0.1c0-0.1,0-0.1,0-0.2 c0-0.1,0-0.2,0-0.3c0,0,0,0,0,0.1c0,0.1,0,0.2,0.1,0.3c0,0.1,0,0.1,0,0.2c0,0,0,0,0,0.1c0,0,0,0,0-0.1c0,0,0-0.1,0-0.1 c0,0.1,0,0.2,0.1,0.2c0,0,0,0.1,0,0.1c0,0,0,0,0,0.1c0,0,0,0,0-0.1c0,0,0,0,0,0c0.1,0.2,0.1,0.4,0.2,0.5c0,0,0,0.1,0,0.1 c0,0,0,0,0,0c0,0,0,0,0,0c0,0,0-0.1,0-0.1c0-0.1,0-0.2,0-0.3c0.1,0.1,0.1,0.3,0.1,0.4c0,0.1,0,0.1,0,0.2c0,0,0,0,0,0.1 c0,0,0,0,0-0.1c0-0.1,0-0.1,0-0.2c0,0,0,0,0,0c0,0.1,0,0.1,0.1,0.2c0,0.1,0,0.1,0,0.2c0,0,0,0,0,0.1c0,0,0,0,0-0.1 c0-0.1,0-0.1,0.1-0.2c0,0,0,0.1,0,0.1c0,0,0,0,0,0.1c0,0,0,0,0-0.1c0-0.1,0-0.1,0-0.2c0,0,0-0.1,0-0.1l0,0c0,0,0,0.1,0,0.1 c0-0.1,0-0.1,0-0.2c0,0,0,0,0,0c0,0,0,0,0,0c0,0,0.1,0.1,0.1,0.1c0,0,0,0,0,0c0,0,0,0,0,0c0,0,0,0,0,0.1c0,0,0,0,0,0 c0.1,0.2,0.1,0.4,0,0.7c-1,0.2-1.7,0.8-2.4,1.3c-0.2,0.1-0.3,0.3-0.5,0.4c-0.5,0-1,0-1.5,0c-0.4,0-0.8-0.1-1.2,0 c-0.5,0.1-1.1,0.2-1.5,0.7c-0.4,0.4-0.7,0.9-1.1,1.3c-0.1,0.2-0.2,0.3-0.4,0.4c-0.2,0.2-0.6,0.3-0.9,0.4c-0.4,0.1-0.5,0.1-0.7,0.4 c-0.1,0.1-0.2,0.1-0.2,0.3c-0.1,0.1-0.1,0.3-0.2,0.4c-0.1,0.2-0.3,0.4-0.4,0.5c-0.2,0.3-0.4,0.5-0.6,0.8c-0.2,0.2-0.4,0.3-0.5,0.4 c-0.4,0.4-0.4,1.1-0.4,1.6c0,0.6,0,1.2,0,1.9c0,0.5,0.1,1.1,0,1.6c0,0.4-0.2,0.8-0.3,1.2c-0.1,0.3,0.1,0.6,0,0.9 c0,0.3-0.1,0.4-0.1,0.7c0,0.3,0,0.4,0.1,0.7c0.3,0.5,0.6,0.8,1.1,1.1c0.6,0.3,1.2,0.4,1.8,0.6c0.2,0,0.3,0.1,0.6,0.1 c0.2,0,0.4,0,0.5,0c0.3,0.1,0.5,0.2,0.8,0.3c0.3,0.1,0.7-0.1,1,0c0.1,0,0.1,0,0.2,0.1c0,0.1,0,0.2,0,0.2c0,0.2-0.2,0.2-0.3,0.4 c0,0.1,0,0.4,0,0.5c0,0.3,0.1,0.7,0.2,0.9c0.1,0.1,0.2,0.3,0.2,0.4c0.1,0.1,0,0.3,0.1,0.5c0.2,0.6,0.5,1,0.7,1.5 c0.2,0.1,0.2-0.2,0.3-0.1c0.1,0.2,0.3,0.3,0.4,0.5c-0.3,0.1-0.4,0.3-0.5,0.5c-0.2,0.4-0.2,0.9-0.2,1.3c-0.2,1.4-0.2,3-0.4,4.3 c-0.1,0.8-0.3,1.7-0.5,2.6c-0.1,0.7-0.3,1.3-0.5,1.9c-0.1,0.2-0.1,0.5-0.2,0.6c-0.1,0.3-0.4,0.4-0.5,0.6c-0.1,0.2-0.3,0.5-0.4,0.8 c-0.3,0.8-0.6,1.7-0.6,2.7c0,0.8,0.1,1.7,0.1,2.5c0,0.8-0.1,1.5-0.1,2.2c-0.1,0.7-0.1,1.4-0.4,2.1c-0.7-0.1-0.8,0.4-1.3,0.8 c-0.4,0.3-0.8,0.4-0.9,0.7c-0.4,0.8,0.4,2,0.9,2.7c0.8,1.3,1.6,2.9,2.5,4c0.4,0.5,1.1,1.2,1.7,1.5c0.1,0.1,0.3,0.2,0.4,0.2 c0.8,0.2,1.2-0.2,1.6-0.6c0.2-0.2,0.4-0.6,0.4-0.8c0-0.7-0.5-1-0.8-1.4c-0.1-0.1-0.2-0.3-0.3-0.5c-0.1-0.2-0.3-0.3-0.3-0.4 c-0.1-0.1-0.1-0.3-0.1-0.4c-0.1-0.1-0.1-0.3-0.2-0.4c-0.1-0.2-0.1-0.5-0.2-0.7c0-0.1-0.1-0.2-0.2-0.2c-0.1-0.3-0.1-0.6-0.1-0.8 c0-0.2,0.1-0.3,0.1-0.5c0-0.1-0.1-0.1-0.1-0.2c-0.1-0.2,0-0.6-0.1-0.8c0-0.1-0.2-0.1-0.2-0.3c-0.1-0.3,0-0.9,0.1-1.4 c0-0.5,0.1-1,0.1-1.4c0.1-0.4,0.2-0.8,0.3-1.2c0.5-1.6,0.9-3.1,1.4-4.7c0.1-0.3,0.3-1,0.5-1.1c0.1-0.1,0.5,0,0.7,0 c0.2,0,0.6,0,0.7-0.1c0.2-0.1,0.4-0.7,0.5-1c0.2-0.4,0.3-0.8,0.4-1.1c0.1-0.2,0.2-0.3,0.4-0.4c0.2-0.3,0.4-0.7,0.6-1 c0.1-0.2,0.3-0.3,0.4-0.5c0.1-0.3,0.2-0.6,0.3-0.9c0.3-0.9,0.7-1.8,1-2.8c0.1-0.1,0.3,0,0.3-0.1c0-1,0.3-1.9,0.6-2.7 c0.3-0.8,0.5-1.7,0.7-2.6c0.6,0,1.3-0.1,1.8-0.2c0.4-0.1,0.7-0.3,1-0.4c0.6-0.1,1.2-0.2,1.8-0.4c0.5-0.2,1.1-0.4,1.6-0.6 c0.7-0.3,1.6-0.7,2.4-0.9c0.3-0.1,0.8-0.2,0.9-0.2c0.1,0,0.6,0.8,0.7,0.9c0.1,0.1,0.1,0.3,0.1,0.4c0.4,0.8,1.1,1.4,1.7,1.9 c0.7,0.6,1.6,1,2.5,1.6c0.9,0.5,1.7,1.1,2.4,1.7c0.4,0.4,0.7,0.7,1,1.1c0.3,0.4,0.7,0.7,1.1,1c-0.2,0.3,0.3,0.5,0.6,0.6 c0.3,0.1,0.5,0.2,0.8,0.2c0,0.6,0,1.3,0,1.9c0,1.3,0.3,1.3,1.5,1.8c1.3,0.6,2.2,1.3,3.4,2c0.9,0.6,0.9,1,1.5,1.9 c0.4,0.7,1.1,0.7,1.5,1.2c0.3,0.4,0.6,1.3,0.5,1.8c-0.3,1.3-1.9,1.2-2.3,2.3c-0.6,1.6,0.1,4.1,0.8,5.5c0.9,1.8,1.3,4.2,3,5.4 c0.1,0.1,0.2,0.1,0.3,0.2C91.6,86.3,100.1,72.5,100.1,56.7z M45.1,36.9C45.1,36.9,45.1,36.9,45.1,36.9 C45.1,36.9,45.1,36.9,45.1,36.9C45.1,36.9,45.1,36.9,45.1,36.9z M64.1,28.1c0.4,0,0.7,0,1.1,0c0.7,0,1.1,0,1.5,0.6 c0.4,0.5,0.1,1.4-0.2,1.9c-0.1,0.2-0.3,0.4-0.4,0.6C66,31.4,66,31.8,65.9,32c-0.1,0.1-0.2,0.2-0.3,0.3c0,0-0.1,0-0.1,0 c-0.2,0.1-0.6,0.4-0.7,0.5c-0.1,0.1-0.2,0.4-0.3,0.6c-0.1,0.2-0.3,0.4-0.4,0.6c-0.1,0.2-0.2,0.5-0.3,0.8c-0.2-1.5-0.5-3-0.7-4.6 c0.4-0.3,0.7-0.9,0.9-1.8C64,28.4,64,28.2,64.1,28.1z M65.7,36.4c-0.1,0-0.2,0.1-0.3,0.1c-0.2-0.6-0.1-0.9,0.1-1.2 C65.4,35.6,65.4,36,65.7,36.4z M63.4,36c-0.1,0.3-0.3,0.6-0.3,0.9c0,0.1,0,0.3,0,0.5c-0.1,0.5-0.6,0.4-1.1,0.5 c-1.2,0.3-2.5,1.1-3.6,1.5c-0.4,0.2-0.9,0.3-1.3,0.4c-0.4,0.1-0.7,0.4-1,0.6c2.1-3.3,4.3-6.6,6.4-9.9c0,0,0,0,0.1,0 C62.8,32.2,63.1,34.1,63.4,36z M62.3,28.2C62.3,28.2,62.3,28.1,62.3,28.2c0.2-0.1,0.4-0.1,0.7-0.1c0.2,0,0.5,0,0.7,0 c0,0.1,0,0.2,0,0.3c-0.1,0.6-0.4,1.1-0.6,1.4c0-0.1,0-0.3-0.1-0.4c0,0,0,0,0-0.1c0-0.1-0.2-0.2-0.3-0.2c-0.1,0-0.2,0-0.2,0.1 c0,0.1-0.1,0.1-0.1,0.2C62.2,29.2,62.2,28.7,62.3,28.2z M52.2,33.9C52.2,33.9,52.2,33.9,52.2,33.9C52.2,33.9,52.1,34,52.2,33.9 C52.1,34,52.1,34,52.2,33.9c-0.1,0-0.2,0-0.2-0.1C52,33.9,52.1,33.9,52.2,33.9z M50.9,32L50.9,32c0,0-0.1,0.1-0.1,0.1l-0.1,0 c0,0,0,0,0,0C50.7,32,50.8,32,50.9,32z M50.6,32.3c0,0-0.1,0-0.1,0c0,0,0,0,0,0c0,0,0,0,0,0C50.4,32.3,50.5,32.3,50.6,32.3z M50.5,31.8C50.4,31.8,50.4,31.8,50.5,31.8L50.5,31.8c-0.1,0-0.1,0-0.1,0.1C50.4,31.8,50.4,31.8,50.5,31.8z M51.1,40.3 c0.4-0.1,0.9,0.1,1.2-0.1c0.3-0.2,0.3-0.6,0-1.1c0-0.1,0.1-0.2,0.2-0.3c0-0.1,0-0.1,0-0.2c0-0.1,0.1-0.1,0.1-0.1 c0-0.2-0.1-0.3-0.1-0.4c0-0.1,0.3-0.4,0.5-0.6c0,0,0,0,0,0l0,0c0,0,0.1-0.1,0.1-0.1c0.2-0.3,0.4-0.6,0.5-0.8 c0.9-1.3,1.4-2.8,2.2-4.2c0.2-0.3,0.4-0.5,0.5-0.8c0.2-0.3,0.2-0.7,0.3-1.1c0-0.1,0-0.3,0.1-0.4c0-0.1,0.1-0.2,0.2-0.2 c0.1-0.2,0.2-0.5,0.3-0.7c0,0,0,0,0.1,0c0.7,0.1,1.1-0.2,1.7-0.4c0.2-0.1,0.4-0.1,0.5-0.3c0.2-0.2,0.2-0.4,0.5-0.6 c0.4-0.3,0.7-0.1,1.1,0c0.3,0.1,0.6,0.1,1,0.1c-0.1,0.7-0.1,1.4,0.1,1.8c-2.4,3.7-4.7,7.4-7.1,11c-0.5,0.2-1,0.4-1.6,0.5 c-0.4,0.1-0.7,0-1,0c-0.4,0-0.8,0.1-1.1,0c-0.3,0-0.5-0.3-0.9-0.5C50.6,40.8,50.7,40.4,51.1,40.3z M50.3,31.9L50.3,31.9 c-0.1,0-0.1,0.1-0.2,0.1c0,0,0,0-0.1,0C50.1,32,50.2,32,50.3,31.9z M49.5,31.8C49.5,31.9,49.5,31.9,49.5,31.8 C49.4,31.9,49.4,31.9,49.5,31.8C49.4,31.9,49.5,31.9,49.5,31.8z M48.4,31.3C48.4,31.4,48.4,31.4,48.4,31.3l-0.1,0.1l0,0L48.4,31.3 L48.4,31.3l-0.2,0.2C48.3,31.5,48.4,31.4,48.4,31.3z M48.4,31.5L48.4,31.5C48.4,31.4,48.4,31.5,48.4,31.5L48.4,31.5l-0.1,0.1l0,0 L48.4,31.5z M48.3,31.6L48.3,31.6l0.1-0.1C48.4,31.5,48.4,31.5,48.3,31.6C48.3,31.6,48.3,31.6,48.3,31.6L48.3,31.6 C48.3,31.7,48.3,31.7,48.3,31.6C48.3,31.7,48.3,31.6,48.3,31.6z M48,31.5C48,31.5,48,31.6,48,31.5c0,0.1,0,0.1,0,0.1 c0,0,0,0-0.1,0.1c0,0,0,0-0.1,0C47.9,31.6,47.9,31.6,48,31.5z M47.7,31.3C47.7,31.3,47.7,31.3,47.7,31.3 C47.6,31.3,47.6,31.3,47.7,31.3L47.7,31.3z M47.6,31.4C47.6,31.4,47.6,31.4,47.6,31.4C47.6,31.4,47.6,31.4,47.6,31.4 C47.6,31.5,47.6,31.4,47.6,31.4z M47.3,31.4L47.3,31.4L47.3,31.4C47.4,31.5,47.4,31.5,47.3,31.4c0,0.1-0.1,0.2-0.1,0.2 C47.3,31.6,47.3,31.5,47.3,31.4z M46.6,31.9C46.6,31.9,46.6,31.9,46.6,31.9L46.6,31.9C46.6,31.9,46.6,31.9,46.6,31.9 C46.6,31.9,46.6,31.9,46.6,31.9C46.6,31.9,46.6,31.9,46.6,31.9z M46.9,52.8c0,0,0-0.1,0-0.1c0-0.3-0.2-0.4-0.2-0.6 c0-0.1,0.1-0.3,0-0.4c0-0.2-0.1-0.3-0.2-0.5c0.3-0.6,1.1-0.7,1.4-1.1c0.2-0.3,0.4-0.7,0.5-1.1c0.1-0.3,0.2-0.7,0.3-1 c0.2-0.5,0.5-0.9,0.7-1.4c0.2-0.4,0.5-1.1,0.9-1.3c0.2-0.1,0.6-0.1,0.9-0.2c0.3,0,0.6,0,0.9,0c0.1,0,0.2,0,0.3,0 c-1.2,1.8-2.4,3.7-3.5,5.5c-0.2-0.1-0.4,0-0.6,0.2l-1,1.2C47,52,47,52.1,47,52.3c0,0.1,0.1,0.2,0.1,0.3C47.1,52.6,47,52.7,46.9,52.8 z M49.1,51.1L49.1,51.1c0,0,0.1,0.2,0,0.3l-0.6,1.2c0-0.1-0.1-0.3-0.2-0.4C48.6,51.8,48.9,51.5,49.1,51.1z M47.8,52.1 c-0.1,0-0.2,0.1-0.3,0.2c0,0,0,0-0.1-0.1c0,0,0-0.1,0-0.1l1-1.2c0-0.1,0.1-0.1,0.2-0.1C48.3,51.3,48,51.7,47.8,52.1z M67.9,65.1 c-0.1,0.1-0.2,0.1-0.2,0.2c-0.3-0.1-0.6-0.4-0.8-0.7c-1.5-1.6-2.9-2.9-4.4-4.5c-0.2-0.2-0.7-0.7-0.7-0.8c0-0.1,0.2-0.3,0.3-0.4 c0.1-0.2,0.2-0.3,0.3-0.4c0.1-0.2,0.3-0.6,0.2-0.9c0-0.2-0.4-0.7-0.6-1c-0.3-0.3-0.6-0.6-0.8-0.8c-0.2-0.1-0.4-0.2-0.6-0.3 c-0.1,0-0.1-0.1-0.1-0.2c-0.6-0.5-1.3-0.7-2.1-0.9c-0.2-0.1-0.4-0.2-0.6-0.2c-0.5,0-1,0.1-1.4,0.1c-1,0.2-1.8,0.5-2.9,0.6 c-0.1,0-0.1-0.3-0.2-0.3c-0.6,0.2-1.3,0.5-2.1,0.6c-0.8,0.1-1.6,0-2.2,0.2c-0.2,0.1-0.4,0.3-0.5,0.3c-0.1,0-0.3-0.1-0.4-0.2 c-0.1-0.1-0.2-0.2-0.3-0.3c-0.2-0.1-0.4-0.1-0.5-0.3c0,0,0,0,0,0c0.3,0,0.6-0.1,0.7-0.3c0.2-0.5,0.3-0.7,0.6-1.2c0,0,0-0.1,0-0.1 c0.1,0,0.2-0.1,0.3-0.2l0.6-1.4c0.1-0.3,0.1-0.6-0.1-0.7c1.3-2,2.5-3.9,3.8-5.9c0.8-0.1,1.5-0.4,2.2-0.7c0.5-0.2,1.1-0.3,1.5-0.5 c0.3-0.1,0.6-0.3,0.9-0.5c0.3-0.2,0.7-0.3,1-0.5c1.2-0.7,2.2-1.5,3.3-2.3c0.3-0.2,0.5-0.4,0.8-0.6c0.3-0.2,0.6-0.3,0.9-0.5 c0.1,0,0.1-0.1,0.2-0.2c1.3,8.6,2.7,17.1,4,25.7C68,65,67.9,65.1,67.9,65.1z M70.2,50.8c0,2.9,0,5.9,0,8.8c-0.2,0.1-0.4,0.1-0.6,0.3 c0.1,0.8,0.5,1.5,0.4,2.1c0,0.2,0,0.3-0.1,0.4c-0.1,0.1-0.2,0.4-0.2,0.5c0,0.2,0,0.4,0,0.5c-0.1,0.2-0.2,0.1-0.3,0.2 c-0.1,0.1-0.2,0.2-0.3,0.3C69,63.9,69,64,68.9,64.1c-0.1,0.1-0.2,0.3-0.3,0.3c-0.1,0-0.1,0-0.2,0c-1.3-8.6-2.7-17.2-4-25.7 c0.1-0.2,0.2-0.3,0.4-0.4c0.1-0.1,0.3-0.1,0.4-0.2c0.4-0.3,0.5-0.6,0.9-1c0,0,0.1-0.1,0.2-0.1c0,0,0.1,0.1,0.1,0.1 c0.1,0,0.1,0,0.2,0.1c0,0.1,0,0.1,0.1,0.2c0.1,0.2,0.3,0.3,0.5,0.4c0,0,0.1,0.2,0.1,0.2c0.1,0,0.1,0,0.2,0.1c0,0.1,0,0.1,0,0.2 c0.2,0.2,0.4,0.2,0.5,0.5c0.1,0.2,0.3,0.4,0.4,0.6c0.1,0.3,0.2,0.5,0.2,0.8c0.1,0.7,0.2,1.3,0.5,1.9c0.6,1.5,0.8,2.5,0.8,4.1 c0,0.4-0.1,0.9,0,1.2c0.1,0.3,0.3,0.6,0.3,0.8C70.3,49,70.2,49.9,70.2,50.8z"></path> </svg> 