<?xml version="1.0" encoding="UTF-8"?> <!-- Generator: Adobe Illustrator 18.1.1, SVG Export Plug-In . SVG Version: 6.00 Build 0) --> <svg xmlns="http://www.w3.org/2000/svg" xmlns:xlink="http://www.w3.org/1999/xlink" id="Layer_1" x="0px" y="0px" viewBox="0 0 113.4 113.4" xml:space="preserve"> <path fill="#FFFFFF" d="M112,56.7c0,30.5-24.8,55.3-55.3,55.3C26.2,112,1.4,87.2,1.4,56.7S26.2,1.4,56.7,1.4 C87.2,1.4,112,26.2,112,56.7"></path> <path fill="#B82B30" d="M90.6,80.1l0.1-0.2l-0.4,0L90.6,80.1z M59.5,50.7v0.4c1.2,0.1,2.2,0.3,3.1,1.2h0.2l0.2-0.2 c0.8,0,1.7,0,2.3-0.6h0.6v-0.6c1.6-1.6,0.9-0.8,0.4-1.6C64.2,50.1,61.8,50.7,59.5,50.7 M49,62.2h-0.3h0.6H49z M28.7,67.4l1.1,0.2 l0-0.2l-0.7-0.3l0.5-0.9l0.4,1.5c0.6-0.3,0.6-0.5,0.8-1.1c0.8,0.2,1.3,0.3,2,0.8l0.3-0.3l0.7,0.7l-0.5-0.1c1.1,2.3,0.7,1.1,2.1,2.3 l0.4-0.4l0.2,0.2l-0.1-0.3l0.3-0.1L36,69.2l0.4,0h-0.6v-0.4h0.6v-0.3l-0.2-0.2L36,68.6l-0.3-0.3l0.3-0.3l-1.1-0.6c1.2-1,0.8,1,2-0.1 l-0.8-0.8c0.9-1.6-0.7-1.2,0.1-2.6l1.4,1.9l-0.7,0.5c0.2,0.1,0.7,0.2,0.7,0.7l0.7-0.7c0.9,0,2.3,1.3,3,1.8l0.9-0.6 c-0.3-0.6-0.4-0.8-0.2-1.4l1.4,0.8L43,66l-0.8,0.2l-0.1-0.2l0.9-0.6l-0.7,0c-0.1-1.1-0.5-1.5-1.3-2.3l-0.4,1.3l-1.2,0 c0.3-0.8,0.1-1.4,0.6-2.1l-0.4-0.8c-0.4,0.2-1,0.2-1.5,0.2l0.1,0.2c-1.1,0.6-2.1,1.7-3.2,1.7l-0.2-0.6c-1.3,0.6-2.5-1.7-2.5-2.7 h-0.8c-0.3-0.7-0.4-1.2-0.4-1.9c-2.3,2-10.6,3.9-12.8,2.5l-0.8-0.6c-1.7-1.7-3.3-5.3,0.2-6.8c4.4-1.8,12-3.2,13.7-1.7l1.9,0.9v0.2 h2.1c0.5-0.9,2.2-2.9,3.3-3.1h1.4v-0.6l1.9-1.7h1v-0.4h-0.2c-1.7-1.7-1.4,0-1.7-4.5c-0.3-3.2,1.4-4.3,4.1-5.4 c3.6-1.5,6.1,3.1,5.8,3.7l-0.2,0.2h-0.4v0.2h-0.2v1h0.2l0.2,4.7c2.9,0,0,4.4,14.4,0.8l1.5-0.2v-0.2l0.6-0.2c0.5-2.5,3.9-1.9,5-0.8 V47h0.6v-0.2c2.3-0.8,3-0.6,3.7-1c0.4-0.2,1.2-1.1,2.1-2c2.5-2.5,12.1-4.3,15-2.5c1,0.6,1.3,3,0.9,4.7c-0.6,2.8-13.6,3.7-15.2,2.2 c-0.7-0.7-1.3-0.5-1.6-0.6c-1.8-0.4-3.5,0.9-5.1,0.9v0.2L71.2,49c-0.6,1.2-0.4,2.4-0.4,3.7h-0.2c0,2.7-0.3,3.1-1.4,5.2 c0.9,0.2,2.1,0.2,2.9,0.6v0.2h0.2v0.4c3.1,0,3.4,0.3,5.4,2.3c3.4-0.2,6.7-0.2,10.1-0.2V61c0.8,0,1,0.4,1.5,0.4 c2.2,2.5-6,10.6-7.6,11.3c-0.6,0.3-1.4,0.2-2,0.5l0.2,0.2c1.3-0.2,1.4-0.3,2.8,0l1.3,0l0.8,0.9c1.7-0.3,3.1,0.2,4.4,1.3l-0.2-1.2 c0.4,0.3,0.5,0.6,0.7,1l0.3-0.3c0.7,0.3,2.3,0.7,2.2,1.6l-4.9-0.6v-0.2c-1.2,0.7-2.5-0.3-3.8,0.3c1.3,0.7,2.5,1.7,3.9,1.5l-0.1,0.3 l5.8,3.3L93,81.5l-5.8-3.2l3.9,2.4l-3.7-1.9l4.3,3.4l0,0.7c-2.4-1.9-4.5-3.5-7.2-5.1c-1.6-1-2.1,0-3.4-0.3L80.9,78 c1,1.2-1.1,0-1.4-0.2L79.4,79l-0.7-0.3L78.5,79l0.1-0.9c-0.5,0-0.9,0-1.2-0.1l0,0.3l-0.2-0.1l-1,1.4l-0.5-0.1l-0.2-0.3L73.7,79 l0-0.3l-0.1,0l-0.5-0.4l0,0.1l-0.5-0.2l-0.5,0.4l0-0.6c-0.8,0.3-1.1,0.6-1.9,0.4L70,78.9l-0.9-0.6l-0.3,0.4l2.3,0.8V79 c0.8,0.1,1.3,0.4,2,0.9c-6.2,0.3-4.2-0.2-5.9-0.9l-2.1,0.4C64.5,80,63.8,80,63,80l-1.2-1.2c-3.3,0-2.9,1.6-4.5-0.6 c-0.3-0.4-0.7-0.7-1.2-1v-0.2c-0.5,0.1-0.8,0.2-1.2,0.6l-1.5-0.2v0.6c-2.3,2.3-12.7-3.3-13.3-3.2c-1-0.9-2.2-1.7-3.3-2.3v-0.1l0,0 c-0.7-1-1,0.1-1.5,0.7l-0.2-0.8L33,71.2l-0.2,0.5l-0.6-0.5l0.3-0.3l-1-0.6L31,71.1L30,70.7l0.5-0.3l-0.9-0.8l-1.2,0.7 c0-1.1,0-1.7,0.7-2.6L28.7,67.4z"></path> </svg> 