<?xml version="1.0" encoding="UTF-8"?> <!-- Generator: Adobe Illustrator 18.1.1, SVG Export Plug-In . SVG Version: 6.00 Build 0) --> <svg xmlns="http://www.w3.org/2000/svg" xmlns:xlink="http://www.w3.org/1999/xlink" id="Layer_1" x="0px" y="0px" viewBox="0 0 113.4 113.4" xml:space="preserve"> <path fill="#FFFFFF" d="M112,56.7c0,30.5-24.7,55.3-55.3,55.3C26.2,112,1.4,87.2,1.4,56.7c0-30.5,24.8-55.3,55.3-55.3 C87.2,1.4,112,26.2,112,56.7"></path> <path fill="#B82B30" d="M48.1,73.6l-0.4,0l0-0.2l-0.6,0l0,0.5l-0.5,0l0-0.2l-0.2,0l0,0.3l-0.6-0.1c-0.1,0.2,0,0.2-0.4,0.2L45.1,74 l0,0.3l-0.6,0l-0.1-0.2l0-0.1l-0.2,0l0-0.2l-0.4-0.2l-0.6,0l0-0.1l1,0.1l0.4,0l0-0.2l-0.6,0l0-0.2l0.3-0.3l-0.6,0.1l0,0.2 c-0.3,0-0.2,0.1-0.5,0.1c-0.3,0-0.2,0-0.5-0.1l0,0.2l0.2,0l-0.2,0.5l-0.5,0.3l-0.4-0.1l0-0.3l0.5-0.5l0-0.3l-0.4,0l0-0.3 c-0.7,0-0.7-0.2-0.7-0.6l-0.3-0.3l-0.4,0l0-0.2l-0.4,0.1c-0.4,0-0.7-0.3-0.7-0.6c-0.7,0-1.5,0-2.2,0l0.1,0.1l-1.2,0l0-0.1 c-0.1,0-0.1,0-0.2,0c0,0-0.1,0-0.1,0l-0.1-0.1c0,0-0.1,0-0.1,0l-0.1,0.3c-0.3,0-0.6,0-0.9,0.1c-0.2,0-0.3,0-0.5,0.1l0,0.2 c-0.1,0-0.2,0.1-0.3,0.1c-0.2,0.1-0.4,0.1-0.7,0.2C33,72,32.9,72,32.7,72c-0.6,0.1-1.1,0.3-1.4,0.7c-0.3,0.3-0.2,0.5,0,0.7l-0.7,0.5 l0,0.4l-0.6,0l0-0.2l-0.2,0l0,0.2c0,0.3-0.1,0.3-0.4,0.4l0.1,0.5l0-0.2l0.3,0l0.1,0.3c0.4,0,0.7,0,0.7,0.2l0,0.2L31,76l-0.2,0.5 l0.4,0l0,0.5l-0.3,0l0.1,0.5h-0.3l0.1,1.2l-0.6,0.2l0.1-0.4l-0.8,0.3l0,0.8c0,0.4,0.5,0.1,0.8,0.1c0.4,0,0.5,0.1,0.6,0.2l0.1,0.2 c0,0,1.2-0.4,1.1-0.5c0.4,0.1,0.7,0.1,0.9-0.1c0,0,0.4,0,0.3,0.1l1.1,0.2l-0.2-0.2c0.1,0,0.2,0,0.3,0c0.2,0,0.4,0.1,0.7,0.1 c0,0,0,0.1,0,0.1l0.5,0.2c0.2,0,0.3,0,0.3-0.1c0.5,0.1,1,0.3,1.5,0.5c0.3,0.1,1.2,0.4,1,0.7c-0.2,0.3-0.5,0.6-0.4,1 c0,0.1,0.1,0.1,0.1,0.2l-0.2,0l0-0.2l-0.4,0l0,0.2l-0.2,0l0,0.4l-0.5-0.1c0,0,0.6,0.9,0.4,0.9l-0.4,0.2l0.7,0.2l0,0.2l-0.5,0l0,0.3 c0.6-0.1,1.3,0,1.3,0.5c0,0.2-0.1,0.2-0.1,0.3l0.4,0.3l0.1-0.4l-0.3-0.3c0.5-0.4,0.2-0.5,1.5-0.5v-0.2l-0.4,0.1l-0.3-0.2L38.4,84 l0-0.4l0.5,0.1l0-0.2c0,0,0.6,0.2,0.7,0.2c0.5,0,0,0,0.4-0.1l-0.3-0.5l-0.3,0l0-0.3c0.2,0,0.4-0.1,0.5-0.2c0.2-0.1,0.3-0.2,0.4-0.4 l0.2,0.1l0.3-0.5c0.4,0,0.8-0.2,1-0.5c0.1-0.2,1.7-0.2,2-0.2c0.2,0,0.3,0,0.5-0.1l0,0.1l0.3,0l0.3,0.4c1.7,0,0.6-0.5,1.7-0.6 l-0.2-0.3l-0.2,0l0-0.2l-0.6,0.1l0.2-0.1l-0.1-0.6l-0.3,0c0.1-0.3,0.1-0.4,0.6-0.4c0-0.6,0.4-0.3,0.9-0.9l0.5-0.2v0.3l0.2,0l0-0.5 l0.3,0.3l0.4,0c0.1-0.2,0.1-0.1,0.1-0.3L48,78.1l-0.4-0.1c0,0,1.3-0.8,1.4-0.8c0.1,0.2,0.2,0.2,0.3,0.2c-0.2-1.4-0.5-2.8-1.1-4.1 C48.1,73.5,48.1,73.5,48.1,73.6"></path> <path fill="#B82B30" d="M89.2,57.2c0,0-1.9-10.1-8-11.5c0,0-2,3.5-7.8,4.3c-3.2,0.5-8.9-1-8.9-1c-1.7-0.1-5.9,0.3-8.2,2 c-2.4,1.7-9.1,9.3-9.1,9.3c0,0,0,0.4,0,0.4c-0.4,0.7-0.7,1.7-1.1,2.5c-0.3,0.2-2.5,1.7-2.8,1.9c-0.7,0.6-1.4,1.1-2.1,1.4l-0.5,0.1 l0,0.1c-0.1,0-0.1,0.1-0.2,0.1l-0.1,0l-0.3,0c0,0,0,0.1,0.1,0.1c-0.1,0-0.3,0.1-0.4,0.1l0,0l0-0.1l-0.2,0l0,0.1l-0.1,0l0,0.1 c-0.7,0.1-1.5,0.2-2.3,0.2c-0.5,0-0.7,0.3-0.7,0.7h0v-0.4l-0.8-0.1l0.1-0.2l-0.2,0.1l0.1,0.3L34.8,68c0,0,0.2,0.2,0.1,0.2l0.3,0 l-0.1,0.2l0.3,0l-0.1,0.2l0.3,0.1l-0.1,0.2c0.4,0,0.3-0.1,0.3-0.3l0.3,0.1l0,0.2c0,0.2,0,0.2-0.1,0.3h-0.2l0,0.1l-0.3-0.1l0,0.3 c0.4,0,0.6-0.2,0.6,0.2c0.1-0.1,0.1-0.2,0.1-0.4c0-0.2-0.1-0.1-0.1-0.3l0-0.2l0.3,0c0.1,0.1,0.2,0.2,0.4,0.2h0 C36.9,68.9,37,69,37,69l0.2,0l0.5,0.1l0,0.1c-0.3,0-0.3,0-0.5,0.3l0.3,0.1l0.6,0c0,0,0.2,0.2,0.3,0.2l0.4,0.3l0-0.1l0.5,0.2 c0,0.1,0,0.1-0.1,0.1c-0.3-0.1-0.7-0.1-0.7,0.2l0.1,0.2c0,0,0.3-0.2,0.3-0.1l0.3,0.2c0,0,0,0.3,0.1,0.3l0.2-0.4 c0.1,0.1,0.3,0.1,0.4,0.3l0.3,0l-0.1,0.2c0,0.1,0.1,0.1,0.1,0.1c-0.2,0-0.4,0-0.6,0.1l0-0.1l-0.1,0l0,0.4l0.2,0v0.2l0.3-0.1l0.1,0.1 c0.2,0,0.1,0,0.2-0.1l-0.1,0l0-0.1l0.2,0l0.2,0.1l0.3,0l0.2,0.2l0.4,0l0.1,0.1l-0.5,0L41,73.4l0.5,0c0,0.2,0.1,0.1,0.1,0.3 c0,0.2,0,0.1-0.1,0.3l0.3,0l0,0.2l-0.7-0.1l-0.2-0.3l0-0.4l0-0.2l-0.4-0.1c0,0,0.1,0.6,0.2,0.5l0,0.4c0,0.3-0.1,0.1-0.1,0.3 c0.4,1.4,0.6,2.9,0.8,4.4c0.1,0,0.2-0.5,0.3-0.6l0.1,0.2c0,0,0.3,0,0.2,0.1l0.7-0.1l0,0.2l0.2,0l0,0.2l-0.3-0.1l0,0.6L42,79.6 l0.2,0.9l0.5,0.1l0-0.3l0.3,0.1l0.2-0.9l0.3,0l-0.2,0.9c0.4,0,0.6-0.3,0.6-0.8l0.4,0L44.1,80l0.5-0.1l0.3,0.4l0.2-0.5l-0.2,0l0-0.3 l0.6-0.2l-0.2,0.7l1,0l0-0.2l0.6,0c0.4,0,0.4-0.1,0.5-0.3l0.3,0l0-0.2l0.3-0.3c0.3,0,0.1,0.2,0.4,0.2l0.5,0l0.3-0.2l-0.1-0.4l0.2,0 l-0.4-1.2l0.3,0l0-0.3l0.4,0.1l0,0.2c0,0.2,0,0.2,0.1,0.4l-0.3,0.2l0,0.2l0.2,0l0,0.2l0.2,0c0.1-0.4,0.3-0.3,0.4-0.6 c0,0,0-0.5-0.1-0.5c0,0-0.3-0.7-0.2-0.7c0,0,0.7,0.6,0.8,0.6l0-0.2l0.3,0c0.5,0,0.4-0.3,0.8-0.1l0.2-0.2l0.3,0 c0.1,0,0.4-0.2,0.7-0.3c0.3,0,0.7-0.1,1-0.1l0.2,0.2c0,0,0-0.1,0.1-0.2c0.2,0,0.5,0,0.7-0.1v0l0.3,0c0.1,0,0.1,0,0.1,0l0,0.5l0.5,0 l0-0.6c0,0,0.1,0,0.1,0l0,0l0,0c0.1,0,0.3,0,0.5,0.1c1.1,0.3,2,0.9,3,1.5c0,0.2,0.1,0.2,0.3,0.1c0.1,0,0.1,0.1,0.2,0.1 c0,0,0,0,0.1,0l0.1,0.3l-0.1,0.4c0,0,0.3-0.2,0.4-0.2l-0.1,0.9l-0.3,0l0,0.4l0.5-0.2c-0.1,0.3-0.2,0.1-0.2,0.4l0,0.2 c-0.1,0.1-0.2,0.1-0.3,0.3c0,0.3,0,0,0.1,0.2l0.7-0.4l0.3,0.5l-0.2,0l0,0.2l0.4,0c0.4,0,0.1-0.1,0.4-0.2c0,0-0.1,0.3,0,0.3l0.4,0.3 l-0.1,0.1l-0.5-0.4l-0.1,0.3l-0.8,0L60,82.4l-0.8,0.1l0-0.5l0.3-0.2c0-0.3,0,0-0.1-0.2l-0.6,0.6l0,0.2l-0.4,0.1c0,0.3,0,0.3,0.2,0.4 l1.6,0.1l0.3-0.5l0.3,0.1c0.3,0,0,0,0.2-0.1l0.4,0.2l0.1,0.4l0.4,0l-0.1-0.4l0.8-0.1c-0.1-0.2-0.1-0.3,0.2-0.3l0.4,0 c0.6,0,0.7,0.7,0.5,1l0.2,0l0.1,0.3l0-0.2l0.4-0.1l-0.1,0.2l0.2,0l-0.1-0.6l0.2,0.1l0-0.4c0.4,0,0.4-0.2,0.9-0.1 c0.6,0,1,0.3,1.1-0.5L66.4,82l-0.4-0.4l0-0.2l0.2,0l-0.7-0.4l-0.3,0.1c0,0-0.3,0.5-0.4,0.4c0,0,0,0.5-0.1,0.6l-0.3-0.3 c0,0-0.4-0.4-0.3-0.5l0.6,0.2l0.1-0.3c-0.1-0.2-0.4-0.6-0.6-0.6c-0.3,0-0.1,0.1-0.4,0.1l-0.1-0.2c0,0,0.3-0.1,0.3-0.2l-0.3-0.1 l-0.4-0.6l-0.1,0.2l0-0.3l0.6,0l0-0.1l-0.3-0.3l-0.2,0l0,0.2l-0.5-0.1l-0.1-0.7c0.3,0,0.3,0.1,0.6,0.1c0,0,0.3,0,0.3-0.1l0.6-0.2 L64.1,78l0.2,0c0-0.1,0-0.1-0.1-0.2c0.1,0,0.2,0,0.3,0l0,0.1l0-0.1c0,0,0,0,0.1,0c0.2,0,0.3,0,0.4-0.1l0.5,0.1l0,0.2 c0.3,0.1,0.6,0.1,0.9,0.2c0.4,0.2,0.2,0.4,0.7,0.5l0.2,0.5L67,79.1c0,0.4,0.1,0.5,0.5,0.6l0,0.4c0,0,0.4-0.3,0.4-0.4l0.1,0.4l0.4,0 c0.2,0,0.2,0,0.4,0.1l0.1-0.2c0,0-0.3-0.4-0.2-0.5l0.2,0.3c0,0,0.4-0.1,0.4-0.2l-0.2,0.1l0-0.2l-0.4-0.1l0-0.2l0.3,0L68.6,79 l0.4-0.2l0.2,0.3l0-0.2l0.4-0.1c0.5,0.3,0.7,0.3,1.2,0l-0.1-0.3l0-0.2l-0.2,0l0-0.3l-1-0.3l0-0.2L69,77.7c0-0.4-0.3-0.7-0.7-0.8 c-0.4,0-0.7-1-0.9-1.3c-0.1-0.2-0.2-0.3-0.3-0.5c0.6,0.1,1.3,0.3,1.9,0.5c0.7,0.3,1.3,0.7,2,1c0,0.1,0,0.1,0,0.2l0.2-0.1 c0.1,0,0.2,0,0.2,0.1c0,0.3-0.2,0.6,0.1,0.8l0,0.6c0.7-0.1-0.2-0.1,0.3-0.2l0-0.7l0.4-0.1c0,0,0.3-0.4,0.4-0.3l0-0.3l0.2,0 c0.4,0,0.3-0.4,0.6-0.5l1.1-0.1l0-0.2l0.1,0.1l0.8,0.4l0-0.3c0-0.2,0.2-0.3,0.3-0.4l0-0.4l0.7-0.1l-0.2,0.5l0,0.4L76.3,76l0.6,0 l0,0.2l-0.3,0.4l0.2,0.2l-0.1,0.3l0.9-0.1l0,0.6l0.2,0l0-0.3l0.4,0.1l0.1-0.3L78,76.9c0.5-0.1,0-0.4,0.8-0.4l0-0.2l-0.6,0.1l0-0.3 l0.3,0l0-0.3l0.3,0l0-0.3l0.6,0c0,0,0.6,0.5,0.7,0.5L80,75.6l0.2-0.3l0-0.3l0.3,0.1l0-0.2l0.6-0.1l0,0.2c0.1-0.1,0.2,0,0.2-0.2 l0-0.5c0-0.2,0-0.2-0.1-0.4l0.3,0.1c0,0,0,0.3,0.1,0.3l0,0.4c0,0.3,0.6,0.1,0.8,1.1l0.3-0.5l0.1,0.4l0.3,0l0,0.2 c-0.2,0-0.4,0-0.5,0.1h0.6l0-0.1l0-0.3l0.2,0l0-0.2l-0.5,0.2L82.7,75l0.4,0.1l0.3,0l0.1-0.3c-0.4-0.2-0.5,0-0.5-0.6l0.3,0l-0.2-0.3 l0.1-0.4l-0.2,0l0.1-0.4l0.4,0l-0.1-0.5l0.2,0c0,0.6-0.1,0.7,0.4,0.8l0-0.2l-0.2,0l0-0.3l0.3-0.2l0,0.4l0.5-0.1l0,0.2 c0,0,0.3,0,0.3-0.1c0.3,0,0.3-0.1,0.5-0.1c0.3,0,0.3,0.1,0.4,0.3l0-0.2l0.2,0.1c0,0,0,0,0,0c0.4,0.1,3.5-11.9,3.3-11.9 C89.2,60,89.2,58.1,89.2,57.2"></path> <path fill="#B82B30" d="M68.2,73.9c0.1,0,0.2,0.1,0.3,0.1c0.5,0.2,1.1,0.4,1.7,0.5c0,0,0.1,0,0.1,0l0-0.7l0.6-0.1l0.3-0.4l0.3-0.2 l0.1,0.2l0.9-1.1l0.4,0.6l0.4-0.6l0.1,0.4c-0.9,0.6-0.3,0.2,0.1,0.8l0.3-0.2l0.1,0.2l-0.3,0.2c0,0,0.3,0.4,0.3,0.3l0.8,0.1l1.1-0.3 l0.2,0.6l0.2-0.1l0.1,1.1l-0.2,0.1L75.9,75c0,0-0.5,0.6-0.3,0.6l0.4-0.3c0.2,0.4,0.1,0.5,0.4,0.8l0.3,0.4l-0.2,0.1l0.1,0.2l0.4-0.3 l0.2,0.3l0.4,0.2l0.4-0.4l0.9,1.2l-4.1-0.3l-2.2,2c0,0,0.1-0.7,0.2-0.6l-0.1-0.2l-0.9-0.2c-0.1-0.2,0.2-0.2-0.1-0.6l-0.6-0.6 c0,0,0,0,0,0c-0.1,0-0.2,0.1-0.3,0.1c-0.2,0.1-0.3,0.2-0.4,0.2c-0.2,0-0.3,0.1-0.5,0.1l0.2,0.4l0.2-0.1l0.5,0.8l0.4,0.8l-0.5,0.1 l0.8,0.5l-0.5,0.3l-1-1.3l-0.8-0.2l0.3-0.2l-0.1-0.2L69.1,79l0.1-0.3c-0.5-0.7-0.6-0.9-1.1-0.3L68,78.2l-0.2,0.1L67.6,78 c-0.1,0-0.3,0-0.4,0l0.1,0.8l-0.9-0.4l-0.6,0.4l0.2,0.5l-0.2-0.2c-0.2,0.2-0.3,0.4-0.4,0.5c-0.3-0.5-0.5-0.9-0.8-1.4 C65.8,76.9,67.1,75.4,68.2,73.9"></path> <path fill="#B82B30" d="M93.8,68l0.2,0l-0.1-0.5l-0.6-0.2c0.5-1.2,0.4-1.2,1.3-2c-0.4-0.4-0.7-0.5-1.2-0.3c-0.5,0.2-0.1,0.3,0.1,1.2 L92.3,66l-0.1-0.3l0.7-0.4l-1.2,0l-0.7,1l0.3,0.9l0.7-0.1C92,67.9,91,68,90.4,67.7L90,68.2l-0.7-0.1c0,0,0,0,0,0l0.8-0.4l-0.1-0.6 l-1.1,0l-0.3-0.5l-0.2-0.1l-0.1-0.1c0-0.1-0.1-0.3-0.1-0.4l0.3-0.2l0.2,0.1l-0.4,0.1l0.1,0.4l0.2,0.1l0.5-0.1L89,66l0-0.2l-0.1-0.3 l0.2-0.2l-0.1-0.4L88,65l-0.1,0.2l-0.2,0l-0.5,0.1l0,0c0,0,0,0,0,0c-0.1-0.1-0.2-0.2-0.3-0.2c-1.2,3.6-2.5,7.1-4.3,10.6 c0.4,0.1,0.8,0.2,1.3,0.2c0.5-0.6,1.2-0.8,1.8-1.6l-0.4,0c0.2-0.1,0.4-0.2,0.6-0.3l0.2,0L86,74c0.6-0.3,1.2-0.5,1.9-0.4 c0.2,0,0.4,0,0.6-0.2l0.3,0.3l0-0.2l0.4,0.1c0,0-0.1,0.3,0,0.4l0.3-0.6l0.3,0.1c0,0.6,0.2,0.4,0.6,0.6l0.1-0.4l0.2,0l0.1-0.6l0.2,0 l-0.2,0.7l0.2,0l0.1-0.4l0.3,0.1l0.1-0.3l-0.4,0l0-0.3l-0.4-0.2l0.1-0.5l-0.7,0l0-0.3l-0.8-0.5l0-0.2L89,71.8l-0.3-0.1 c0-0.3-0.2-0.6-0.5-0.7c0.1-0.1,0.2-0.1,0.3-0.1l0.7-0.1l-0.1-0.3c0,0,0,0,0,0l1.2-0.1l-0.1-0.2l0.4-0.3l0.3,0.5l0.5-0.1l0,0.2 l0.4-0.1l-0.1-0.5l0.5-0.1c-0.1-0.6,0.4-1.3,0.8-0.7l0.4-0.1l-0.1-0.4l0.4-0.1L93.8,68z"></path> <path fill="#B82B30" d="M69.8,41.8l0.2,0l0-1.2l0.6-0.1c0.1-0.2,0-0.3,0.2-0.3l0.2,0l0.2,0.4l0-0.3l1.2,0c0.1-0.5,0.2-0.2,0.2-0.5 l0-0.3l0.8,0l0,0.7l0.5,0c0.1,0.4,0.2,0.2,0.2,0.4l0,0.2c0,0.3-0.1,0.1-0.2,0.4l-0.3,0l0.1,2l-0.4,0c-0.3,0-0.3-0.3-0.3-0.5l0-0.4 c-0.4-0.2-0.2-0.7-0.4-1.1l-1.3,0.1l-0.1,0.2c-0.4,0-0.4,0-0.4,0.4l-1.1,0L69.8,41.8z M59.9,47.9c0.9-0.2,13.2-3.3,15.9-3.3 c2.5,0,3.7,0.3,4.2,0.5l0-0.1l-0.2-0.5c0.7-0.7,1.2-1.1,2.1-1c0,0,1-0.7,1.1-0.9c0,0-3.1-3-3.5-3.3c-0.2-0.1-1-0.5-1.3-0.6 c-0.2-0.4-2.3-1.7-2.8-1.8l0.2-0.1c0-0.8-1.2-1.2-1.3-0.8l-0.6-0.1l-0.3,0.1l0,0.2l1.1,0.1l0.1,0.3l-0.3-0.2 c-0.4,0.2-0.8,0.5-0.8,1.1l0,0.4l0.3,0.1l-0.1,0.3l-0.2,0.1c-0.1-0.2-0.2-0.4-0.1-0.7l0-0.8L73,37l0.1,0.7l0,0.2 c0,0.3-0.1,0.3-0.3,0.4c0,0.2,0.1,0.1,0.1,0.3c0,0.1-1.1,0.1-1.5,0.1l-0.2,0l-0.3,0.4l-0.1,0.4l-0.2,0l0-0.5c0-0.3,0.2-0.2,0.3-0.3 l0.2-0.6l0.1-0.2l-0.2-0.4l0.4-0.1l0.4-0.6l0-0.3c0.2-0.3,0-0.4,0.1-0.8c0.1-0.4,0.3-0.1,0.3-0.6l0.3-0.1c0-0.2-0.1-0.2-0.1-0.5 c0-0.3,0.2-0.2,0.3-0.5l0-1.5c-0.2-0.1-0.1-0.1-0.3-0.1c-0.4,0-0.3,0-0.9-0.4l0-0.1l0.4-0.1l0.1,0l0.7,0.3c0-1.7-1.1-2-1.3-2.6 l-0.2,0c-0.1,0-0.8-0.3-1.2-0.4l-1.6,0c-0.8,0-1.8,0.4-2.2,0.8c-0.2,0-0.5,0.2-0.5,0.5c0,0,0,0.3-0.1,0.3L65.7,31l1.5-0.1 c0.2,0,0.2,0.2,0.3,0.4L67.3,32l-1.1,0c-0.3,0-0.4,0.1-0.5,0.2l0.6,0.2l-0.5,0.4l-0.4-0.1l0.5,0.8c0.5,1.1-0.6,2.2,1,3l0,0.4 c0,0-0.4,0.2-0.4,0.1l-0.4-0.2c-0.3,0.2-1.1,0.4-1.1,0.8l0,0.3c0,0.3,0.1,0.1,0.1,0.3l-1,0.6c0,0-2.6,3.3-2.8,3.3l0.3,1.1l-2.8,0 l-0.2-0.3l-0.5,0l0-0.2l0.4-0.1l-0.1-0.4l0.3,0.1l0.1-0.3c0-0.2-0.2,0-0.2-0.5l0.4,0l0-0.3c-0.4,0-0.4-0.1-0.4-0.5l0.3,0.2l0.2-0.1 c-0.3-0.4-0.4,0-0.4-0.6l0.6,0.2l0-0.4l0.2,0l0-0.5c0,0,0.1-0.7,0-0.7l-0.1-0.8l-0.1,0l0-0.4c-0.2-0.1-0.7-1.2-1.3-1.5 C57.7,36.2,57.5,36,57,36c-1,0-2,0-2.6,0.4l-0.2,0l-0.3,0.1l-0.8,0.9c-0.5,0.4-1,2.1-0.6,3l0.3,0.1c0,0.3-0.1,0.2-0.1,0.5 c0,0.2,0.6,1.2,0.7,1.9l-0.2,0l-0.6,0.5l0.7-0.1l0,0.2l-0.1,0.3H53l0-0.2c0,0-0.8,0.5-0.8,0.4l0,0.6c0,0.1,0.3,0.7,0.6,0.8l-0.3,0.6 l-0.5,1.8c-0.3,0.3,0,2.9,0,2.9l-0.1,0l0.1,0.7l0.4,0.5l0,0.5l0.2,0.3l0.3,0l0,0.2C52.7,52.8,57.1,48.6,59.9,47.9"></path> <path fill="#B82B30" d="M81.8,36.6c0.5-0.2,11.6-5.5,11.6-5.5c-0.1,0.5-1,1.9-1.6,2.2c-0.3,0.1-6,2.8-6.8,3.2 c-0.5,0.2-3.3,0.7-3.3,0.7l-1.2,0.5l-0.1,0.4c0.6-0.3,2.7-0.6,2.7-0.6l1.1,0.1l2.9,0.3c1.2,0,6.5-3,7.2-3l0.4-0.5 c0.9,0,1.3-2,1.2-2.4c-0.1-0.1-1-2.1-1.3-2.5c-0.6-0.7-1.5-1.1-2.7-1.1l-6.9,4.1c0,0-2.8,3-3.3,3.5C81,36.4,80,36.8,79.9,37l0.3,0.2 C81.2,37,81.1,36.8,81.8,36.6"></path> <path fill="#B82B30" d="M44.9,44.6l0-0.2c0-0.2,0.1-0.2,0.2-0.4l0.9,0.1l1,0.2c0,0.1,0.1,0.1,0,0.3l0,0.5L46.2,45L45.7,45 C45.3,44.9,44.9,44.8,44.9,44.6 M52.6,52.5c0,0-0.2-0.3-0.4-0.3c-0.3,0-0.4,0.1-0.6,0.2c-0.4-0.3-0.6-0.9-1.2-1.2 c-0.4-0.2-1.2-0.7-1.6-0.7c-0.2,0-0.3,0.1-0.4,0.1l-0.3-0.1c0.1-0.2,0.1-0.4,0.3-0.4l0.3,0l0-0.3l-0.1,0l0.1-0.3 c-0.4-0.6-1.3-0.3-1.5-0.8c0.3,0.1,0.1,0.1,0.3,0.1c0.4,0-0.1-0.1,0.4-0.2l0-0.4l0.3,0.1l0-0.2L47.9,48l0.1-0.5c-0.6,0-1.3,1-1.6,1 c-0.2,0-0.4-0.1-0.6-0.2l-0.1,0l0.8-1.4c0.1-0.2,0.1-0.3,0.1-0.5l0-0.2l0.2,0l0.1-0.6l0.2-0.1l0.3,0l0.1-1.7c0-0.5-0.5-0.8-0.5-1.2 l-0.3-0.4c-0.5,0-0.6-0.5-1.2-0.7c-0.5-0.1-1-0.3-1.6-0.3l-0.5,0c-0.8,0-1.2,0.5-1.5,1c-0.8,0.8-0.8,1-0.8,2.5l0,0.5l0.3,0.2l-0.2,3 l-1.3,0.3c0,0,0.7-2,0-3.7c-0.7-1.7-4-1.2-4.5-1c-0.7,0.5-0.9,1.8-0.9,3l0.3,0l0,1.2l0.1,0.6l-0.1,0l-0.3,0.1c0,0,0.1,0.6,0.1,0.8 c0,0.2,0,0.1-0.1,0.4l-0.6,0l0-0.3l-0.3,0c-0.1,0.3-0.7,0.2-0.9,0.8L32.7,51l0-0.2c0,0-1.6,0.4-2.9,3.1c-0.2,0.5-0.4,0.8-0.5,1 c0.1-0.3,0.3-0.7,0.3-0.7c0,0.3-0.2,0.5-0.3,0.7c-0.1,0.3-0.2,0.4,0,0c-0.2,0.3-0.5,0.5-0.5,0.5c-0.5,1.8-2.6,4.4-3,4.7 c-0.3,0.2-0.9,2-0.5,3.6c-0.4,0.3-0.5,0.6-0.5,0.6s-5.5,1.5-5.5,1.5c-1.6,0.8-4.8,2.7-6.2,3.9c-0.6,0.5-0.9,1-1,1.8 c-0.1,0.7,2.4,3.8,3.1,4c0.7,0.2,1.6-0.2,2.1-0.6c1.5-1,4.2-4,5.6-5.2c0.5-0.4,1.9-3.9,2.2-4.5c0.1-0.3,0.9-0.9,1.1-1.2 c0,0-0.3-1-0.4-1.7c-0.1-0.6,0.5-2.2,1-2.3c0.5-0.1,4.1-1.3,6.4-1.3l3.6,0.6l0.1,0c0.6,0,0.6-0.2,1.2-0.2l0.2,0.3l0,0.2l-0.1,0 l-1,0.3l-0.1-0.2c-0.4,0-0.7,0.1-1.3,0.1c-0.6,0-0.7,0.1-1.1,0.2c-1,0.3-2.1,0.7-3.1,1c-0.9,0.3-1.9,0.4-2.7,1 c-0.3,0.2-1.1,0.6-1.2,0.9l1-0.2c0.8-0.2,3-0.7,3.1-0.8c1.2-0.3,2.3-0.7,3.4-1.1c0.1,0,0.9-0.3,1.1-0.4c0.4-0.2,0.3-0.1,0.7-0.2 c0.4-0.1,0.8-0.3,1.2-0.4l-0.1,0.1l-0.4,0.1c-0.5,0-0.9,0.3-1.2,0.6c-0.2,0.2-1.6,2.1-2.1,2.4c-0.2,0.2-6.4,2.3-6.5,2.4 c-0.1,0.1-0.2,0.1-0.4,0.1c-0.3,0-0.6-0.2-0.9-0.3c-0.1-0.1-0.1-0.2-0.2-0.3c0,0.2,0,0.4,0,0.5c-0.1,0.1-0.2,0.2-0.3,0.3 c-0.2-0.2-0.4-0.4-0.3,0c0,0.2,0.1,0.3-0.2,0.4c0,0.1,0.1,0.3,0.1,0.5c-0.1,0.1-0.1,0.3-0.1,0.4c0.1,0.4,0.3,0.7,0.5,1 c-0.1,0-0.1,0.1-0.1,0.1c-0.1,0.2-0.1,0.2-0.1,0.4c-0.1,0.1,0,0.1,0,0.2c0,0,0.3-0.1,0.2,0.1c0.1,0,0.2,0.1,0.2,0.1 c0-0.1,0-0.1,0-0.2c-0.1,0-0.1,0-0.2,0c0,0,0-0.1,0-0.1c0.1,0,0.1,0,0.2,0c0-0.1,0-0.1,0-0.2c0.2,0.2,0.4,0.5,0.4,0.8 c0.1,0.4,0.4,0.6,0.8,0.5c0.1,0.3,0.4,0.5,0.9,0.5c0,0,0.1,0,0.1,0c0.1,0.2,0.2,0.5-0.1,0.4c0,0.1-0.1,0.2-0.1,0.2 c-0.1,0-0.2-0.1-0.2-0.1c0,0.1,0,0.3,0,0.4c0,0,0.2,0.1,0.2,0.1c0.1-0.2,0.1-0.4,0.4-0.4c0-0.2,0.1-0.4,0.4-0.3 c0.2,0,0.3,0.2,0.4,0.2c0-0.1,0-0.1,0-0.2c-0.1,0-0.2,0-0.2,0c0.2-0.5,0.7,0.1,0.7,0.3c0-0.3,0.4-0.3,0.2-0.5c0,0-0.5-0.1-0.4-0.2 l0.6-0.4c0,0,0-0.1,0-0.1c0.3-0.2,0.5-0.5,0.8-0.8c0.3-0.5,0.6-0.9,1.1-1.3c0.3-0.2,0.4-0.4,0.6-0.6c0,0,0,0,0.1,0 c0.2-0.1,0.3-0.2,0.5-0.3c0.3-0.1,0.6-0.2,0.7-0.4c0,0,0-0.1,0-0.1c0.7-0.5,1.2-0.9,2.1-1c0,0,0,0,0.1,0c0.3,0.1,0.8,0.1,1.1,0 c0,0,0,0,0-0.1c0.3,0,0.7,0,1,0c0,0,0,0,0.1,0c0,0,0,0.1,0,0.1c-0.1,0-0.3,0.1-0.3,0.2c0.2,0,0.3,0,0.5,0c0,0.1-0.1,0.2-0.1,0.3 c0,0,0.2-0.1,0.2-0.1c0-0.1,0-0.2,0-0.2c0-0.1,0-0.2,0-0.4c0.3-0.1,0.6-0.3,0.9-0.5l0,0.1l0.1,0l0.1-0.2c0.5-0.4,1-1,1.4-1.6l0.2,0 l0.2-0.1l0.5,0.1c0,0,0,0,0-0.1l0-0.1h0.1c0.6-0.5,1.9-1.6,2.8-2.5c1-0.9,5.6-6,5.6-6s1.8-1.9,1.9-1.8L52.6,52.5z"></path> <path fill="#B82B30" d="M26.1,69l0,0.2l0.1,0C26.1,69.1,26.2,69.1,26.1,69L26.1,69z"></path> <polygon fill="#B82B30" points="26.1,68.7 26.2,68.8 26.2,68.7 "></polygon> </svg> 