<?xml version="1.0" encoding="UTF-8"?> <!-- Generator: Adobe Illustrator 18.1.1, SVG Export Plug-In . SVG Version: 6.00 Build 0) --> <svg xmlns="http://www.w3.org/2000/svg" xmlns:xlink="http://www.w3.org/1999/xlink" id="Layer_1" x="0px" y="0px" viewBox="0 0 113.4 113.4" xml:space="preserve"> <path fill="#FFFFFF" d="M112,56.7c0,30.5-24.7,55.3-55.3,55.3C26.2,112,1.4,87.2,1.4,56.7c0-30.5,24.8-55.3,55.3-55.3 C87.2,1.4,112,26.2,112,56.7"></path> <path fill="#B82B30" d="M51.4,66.6v-0.3l-3.2,2.9C49.2,68.3,50.5,67.6,51.4,66.6"></path> <path fill="#B82B30" d="M84.4,33.1c-1.3-1.3-8-4.7-9.9-4.7c0-0.4-1.2-0.1-1.4,0l0-1l0.4-0.4c0-1.4,0-2.3-0.6-3.5 c-4.1-8.2-13.2-4.3-12.2,2.7h0.1c0,1.6,0.8,1.9,2.2,1.9l0.1,0.1h0.1c0,0.7,0,1.4,0.6,1.9h0.7c0,0.4,0,0.4,0.3,0.7 c0,4.1-3.2,7.5-5.9,7.5c-4,0.1-7.9-4.7-9.9-4.7l-0.2,0C48,33.3,47,33,46,33c-0.5,0-0.4,0.7-0.8,0.6c-3.7-0.9-11.7-4.1-19.4-7.4 c-0.2,0.2-0.3,0.3-0.5,0.5c8.3,3.4,16.8,6.8,19.1,7.5l0,1.4h0.1V36c0.9,0.9,2.1,2,3.5,2v0.3l0.6,0.7c4.4,0,7.1,1.8,10.3,5v0.3 c-0.5,0.2-0.7,0.5-0.4,1h0.1c1.3,1.3,3.1,2.9,3.1,5.4l-0.3,0.3V52c-1.8,0-6.1,1-7.7,1.8V54c-3.9,0-5.8,3.6-8.1,5.9l-0.9-0.6l0.1-0.1 H45l0-0.2l-0.8-0.6v-0.7l0.4,0.1c0-0.6-0.7-1.3-1.3-1.4l0.9,1.1l-0.4,0l0.2,0.6h-0.3l0.1-0.1L43,57.2l0.2,0.9l-0.8-0.8 c0.5,0.7,0,0.7-0.8,0.7l0,0.8l-0.7-0.3l0.4-0.8l-0.4-0.3l-0.7,0.1v-0.3h0.6V57l-1.3,0l0.3-0.7l0.9,0.4l-0.4-0.8 c-1.4-0.2-2,0.7-2-1.1c-0.6,0-0.6,0-0.7-0.6L36,54.7c0-0.9,0.4-1.6,0.4-2.5l-1,0.3l-0.1,0.6l-0.5-1L34.2,52l0-0.3l0.8-0.1l-0.8-0.8 c-0.8,0.2-1.3,0.1-2.1,0v0.6l-1.4,0.1l0.3-0.6h0.3v0.3h0.4l0.2-0.5c-0.4,0-0.6,0-0.8-0.3h0.5l-1.3-0.1v0.7c-0.6,0-0.9-0.3-1.3-0.6 l0.9,0.3l-0.8-1.1c0.7,0.1,0.5,0.4,1,0.1l1.5,0.5l0,0.2h-0.2l0.3,0v-0.9h-0.5l0.4-0.5l-0.6-0.2l-1.2,0.9l-0.7-1.8l1.2,0.4l-0.2-1.1 c-1.1,0-1.2-0.2-1.2-1.3l0.8,0.5l0.5-0.1L30,45.5c-1.2,0.3-1.5-0.7-2.7-0.7L27.1,44l1.1,0.4l0.1-0.2l-2-0.9l-0.1,0.2 c-0.3-1.1-2.3-1.3-3.1-1.3l0.4,1l0.2,0c-0.6,0.4-0.8,0.5-1.5,0.5l0.6-0.9l-0.6,0.1L22,42.4l-0.7,0.2l-0.9-1.2l0.8,0.1l-0.4-1.1 l0.4,0v0.4l1.6,0.2l-0.6-0.7l0.8,0.1l0.2-0.7h-0.4v-0.4c-1.7-0.9-3.2-2.8-4.9-3.6l1.5,6l-2.8,0.1c1.5,2.2,2.5,2.2,2.5,4.9v1.7 c0.3,0.3,0.7,0.6,1.1,0.7c0,0.4,0,0.8-0.2,1.1c1.5,0.1,0.7,0.9,2,0.5l-0.2-0.5l1.1,0L21,49.5L21,49.7v-0.7h0.9l-0.7-0.4l0.7-0.3 l0.9,1.3l0.1-0.5l1,0.4l0.9-0.8l0.2,0.7l-0.5,0.1l0.7,0.3l0.2-0.7l0.7,0.2l0.4-0.9l-0.4,0v-1.1h0.5c0.4,0.6,1,1.2,1.3,1.8l-1.1-0.5 l0,0.7c1.3,0.1,1.7,0.7,2.2,1.2l-1.3-0.4l0,0.3l-1-0.1v0.3l0.4,0l-0.2,0.6l0.4,0.1l0,0.3l-0.7-0.2l0.2,0.5h-0.3 c-0.3-1.1-1.1-0.2-1.7,0l0-0.4h-0.3l0.2-0.4l0.3,0v0.3h0.4c-0.2-0.4-0.3-0.7-0.4-1v0.3l-0.9-0.4l0.1,1H24v-0.3h-0.3v0.3h-0.3l0,0 l-1,2v0.4l-0.1,0.1l-0.1-0.1l-0.8,1.5l0.9,0.8l-1.2,1.5l0,0c-1,1.8-1.2,4.5-2.1,6.2l0.2,0.4L19,64.3l0.6,0.7l0.6-0.5l-0.1,1l1.3-0.9 l-0.2-0.4l0.3-0.2l0.3,1.4l0.7-0.5l0,1.8l-0.8,0.1l0.2,0.7l-0.6,0.1l1.1,0.7c-0.6,0.4-0.9,0.3-1.6,0.1l0.2-0.1l-0.3-1.3 c-0.6,0.3-2.4,1.4-2,2.9l-0.2-0.2l-1.3,1.9l0.2,0.2l0.7-0.9l0.2,0.9c-1,0.5-0.8,1.6-1.7,2c0.2,0.4,0.3,0.7,0.5,1.1l0,0l0.4-0.9 c0.6,1.1,0.6,1.4,0,1.8c0.2,0.4,0.4,0.7,0.6,1.1l0.4-0.5l0.4,1.9c0.3,0.6,0.7,1.1,1,1.7c0.6-0.8,0-2.2,1.5-3.2L21.2,76l-0.7,1.1 c-0.1-0.9,0-1.8,0-2.7l0.5-0.3l0.6,1.2l-0.4,0.2l0.9,0.8l0.5-0.5l0.6,0.8l0.5-0.7l-0.5,0.2l-0.3-0.9l1,0.3v1.6l0.2,0.1l-0.1,2 l0.3,0.5L23.5,81l0.8,2l0.8-1.1l0.4,1l-0.7,1.9l0.2,1l1-1.3l0.3,0.4l0.7,0.3l0.1,0.4l2.7-1.1l-3.6,2.5c0,0,0.5,0.6,1.1,1.4 c1.2,1.1,2.4,2.1,3.6,3c0.2,0,0.3,0,0.4-0.1l1.4-6l0.7-1.7c0.5,2.1,1.2,2.4,1.2,5l-0.4,4.7l3.7,2.2l1.6-3.2l1.2,1.7l0.4,3 c0,0,6.7,2.3,13.6,3c0.6,0,1.3,0,1.9,0c2.8,0,5.5-0.3,8.1-0.8c0.3-0.1,0.6-0.2,0.9-0.3c-1-3.5-4.2-8.2-5.6-9.6 c-0.3,0-0.4,0.2-0.6,0.4l-1-0.1v-0.4c-0.7-0.2-1,0-1.1-0.6c0.6,0.1,0.4,0.3,0.4-0.3l-1.1,0.3v-0.3h-0.3c0,0.1,1.7,2.3,2.1,2.5 c-0.1,0.5-0.5,1.3-1,0.7H58v-0.3h-0.6c0-0.8-0.5-1.4-1.3-1.4l0,0.9l-0.4-0.2l0,0.5l-0.9-0.2l0.1,0.7l1.1,0.6v0.6h0.4 c0,0.8,1,1.2,1.6,1.9l-0.1,0.6l-0.4,0.2l-1.2-1.1l0.3-0.5l-1.4-0.6V93l0.4-0.1l-0.7-0.7l-0.1,0.1l0-0.5l-0.7-0.3l0.3,1h-0.3 c-0.1-0.8-0.3-1-0.3-1.8h-0.3v-0.7H53l0-0.4l-0.5,0.1l0-0.2l0.2-0.1v-0.3L52.4,89l0.1-0.2l1.1,0.4v-0.3l1.6,0.5l-0.2,0.2l0.6,0.5 l0.2-0.1l-1.1-2.3l0.6,0.2v-0.3h0.2l0.2,0.7l1-0.1l-0.6-1.4l0.7,0.4l-0.3,0.3c0.7,0.3,1.2,0.3,2,0.3l-0.2-0.8l0.8,0.2v-0.6h-0.3v0.3 l-0.1,0l0-0.7L58,86.3l-0.4-0.6l0.6,0.1L58,85.5l-0.2,0.1l-0.6-0.3l0.2-0.6l-0.7,0.2l0.1-0.1l-0.6-0.4v0.2l-0.9,0.3l-0.2-0.4 c0.7-0.4,1.6-0.6,2.4-0.8l-0.9-0.1l-0.3-0.7H57c-0.2-0.9-0.5-1.1-1.2-1.7h0.4v-0.3l1.8,0l-0.1-0.5l-1.4-0.5v0.7l-1.2-0.1v0.2l-0.9,0 l0.3-0.4c-0.5,0-1.3-0.7-1.7-1.3l-0.6,0.1l0.2-0.4c-0.6-0.4-0.8-1.3-0.8-1.9c-0.9,0.2,0.1,1,0.1,1.9l-0.3,0.1l0,0.7l1.4,0.8l0-0.4 l0.4,0.3L53,81l1.1,0.5l0.2-0.4l0.7,0.1c0.1,0.4,0.3,1,0.9,0.8l0.2,0.6l-0.2,0.4L55,83l-0.4,0.3l0,1.4c-0.5-0.2-0.4-0.4-0.3-0.8 h-0.4l0-1l-0.4-0.1v-0.7h-0.6L53,85l-0.8,0.2c0.3-0.5,0.2-0.7,0.1-1.3l-0.6-0.2l0.2,1l-0.2,0.1L51,83.5h0.7v-0.4L51.4,83l0.5-0.6 l0.1,0.1l-0.1-1.4h-0.4c0-0.9-0.9-1.7-1.7-1.8l0.1-0.1l-1.4-1.7l-0.1,0.1c0,0.7,0.1,0.9,0.4,1.5h-0.7v-0.7l-0.2,0 c0-0.5,0-0.8-0.3-1.3l0.3,0l-0.2-0.6h0.6l0-0.3l-0.6-0.2c-0.1,0.3-1.5-1.9-1.5-2.2l-1,0v-0.3l0.3,0l-0.3-0.5l0.4-0.6l0.3,0.1 c-0.2-0.8,1.2-3.3,1.9-0.5l0.7-0.2c0.1,0.4,0.4,2.2,1.2,1.5l-0.7-0.7l0.3-0.5l-0.3,0v-0.3c0.8-0.3-0.6-0.3-0.8-0.3v-0.4L47.8,71 l0-0.7l0.7,0.3l0-0.3h0.3v-0.4c-0.5,0-0.6-0.1-0.6-0.6c0-0.9,1.8-1.3,1.9-2.4c0.4-0.1,0.9-0.1,1.2-0.5l0.1,0h0.1V66H52 c0.3-0.3,0.4-0.5,0.4-1c0.9,0,0.7-0.8,0.7-1.5c0.5,0.2,0.8,0.4,1.4,0.3c3-0.7,17.8-3.4,18.8-4.3v-0.1h0.3c1.9-1.9,3.6-5.2,3.9-7.9 c0.1,8.4,0.1,26.9,0.1,43.4c0.3-0.1,0.5-0.3,0.8-0.5c-0.1-20-0.2-43.4-0.2-46.1c1.2,0,8-5.3,8-7h0.1c1-1,1.2-2.6,2.1-3.5V37 L84.4,33.1z M45.6,77.3L45,77.5l0,0.2l0.6,0.3l-0.1-0.6h0.3v-0.4h-0.3l0-1.7l0.9,0.8c-0.3,0.7,0.7,1,0.9,1.9h-0.3l0.4,1.6l0.3-0.9 l0.2,0.6h0.7v0.6h-0.4v0.3H49l0.2,1.3l0.4-0.2v0.4H50l0.1,0.2l-1.2,0.7v0.3l0.3,0l-0.3,1.1c0.9,0,1,0.5,1,1.1l-0.1-0.1l-0.6,0.6 c0.3,0.3,1.3,0.2,0.5,0.8v-0.4l-0.8,0l-0.6-1.4l-0.3,0l0.2,1.2h-0.4c0-1-0.7-0.8-0.8-2.2c-0.8-0.1-0.7-0.5-0.7-1.1l-0.4,0l-0.9-3.2 c0.5,0.1,0.5,0.2,0.8,0l-0.2-0.9l-0.8,0.3l-0.2-1.5l0.6-0.1L45.6,77.3z M49.8,56.5c0,0.8,0.7,1.5,0.8,2.8 C49.2,59.2,48,56.6,49.8,56.5z M60.8,41.2c1.2-0.6,3-1,3.9-1.9l0.4-0.2l0,0.4h-0.1c0,1,0.1,1.8,0.6,2.6C64,41.7,62.3,41.7,60.8,41.2 z M64.7,49.4l-0.6,0.1c-0.3-1-0.8-2-1.3-2.9l1.4,0h0.4V49.4z M66,44.1c-0.5,0-0.9-0.2-1.3-0.5l-0.1-0.1c0.5,0,1,0.1,1.5,0.3L66,44.1 z M79.6,43.3c-0.4,0,0.4-6.1,0.4-7c1,0.5,2,0.8,2.8,1.5C82.8,39.9,80.9,41.9,79.6,43.3z"></path> </svg> 