<?xml version="1.0" encoding="UTF-8"?> <!-- Generator: Adobe Illustrator 18.1.1, SVG Export Plug-In . SVG Version: 6.00 Build 0) --> <svg xmlns="http://www.w3.org/2000/svg" xmlns:xlink="http://www.w3.org/1999/xlink" id="Layer_1" x="0px" y="0px" viewBox="0 0 113.4 113.4" xml:space="preserve"> <path fill="#FFFFFF" d="M112,56.7c0,30.5-24.8,55.3-55.3,55.3C26.2,112,1.4,87.2,1.4,56.7S26.2,1.4,56.7,1.4 C87.2,1.4,112,26.2,112,56.7"></path> <path fill-rule="evenodd" clip-rule="evenodd" fill="#B82B30" d="M68.4,36.5l0,0.3c0.1,0.5,1.1,3.1,1.9,3.1h0l-0.3-0.9l-0.3-0.9 l-0.5-1.9l-0.2,0l-0.2,0l-0.2,0.1 M54.6,22.9l0,0.2L54,23.4l-1,0.4l-0.5,0.2L52.1,24h-0.2l-0.2-0.1l-0.1-0.1l0.1-0.4 c0.4-1.4,1-2.7,1.4-4.1l0.1-0.4l0.3,1.2c0.3,1.1,0.3,1.5,0.9,2.4l0.1,0.2L54.6,22.9z M47.4,52.8H46l-0.1-0.4l-0.1-0.2l0-0.2l0-0.4 l0.1,0.1l0.5-0.6l1.1,0l0,0.2l0,0.1l0.1,0.1l0.1,0h0.5l0.2,0.4h-0.2v0.6l-0.2,0l-0.1-0.8h-0.4V52.8z M58.9,58.1H59v0.6h-0.1V58.1z M66.8,50.4l0.1-0.7c0-1.5,0-2.3-0.4-3.7l-0.2-0.6h-0.2v-0.2L66,45l-0.1-0.1l-0.1-0.2l-0.2-0.2h-0.2v-3.8l0.2-2.3h-0.1l0-0.4 l0.4,1.5c0.9,3.2,2.4,7.6,1,10.9l-0.2,0.4V50.4z M49.7,43.9l0,0.7l0,0.7l0,0.7v0.7l-0.1,0.1v0.2h-0.2l-0.2,0.2l-0.1,0.2l-0.1,0.2 L49,47.9l-0.1,0.5l0,0.5l0,0.6l0,0.5v0.2l-0.1,0.3v0.2l-0.1,0.2v-0.4c0.1-0.5-0.3-1.6-0.6-2l-0.2-0.3h-0.3v-0.6l-0.1-0.6 c-0.3-2.6-1.1-5-0.7-7.6l0.1-0.4l0.1-0.3c0.5-1.6,0.8-0.7,1.8-2.3l0.2-0.3l0.2-0.2l-0.1,1l-0.1,1.1l-0.1,0.5l0,0.5l0,0.5v0.6 l0.1,0.1h0.3l0.1,0.2c0.3,1.2-0.2,2.4,0,3.5l0,0.2L49.7,43.9L49.7,43.9z M48.9,52.5l-0.1,0.2v-0.8H49L48.9,52.5z M37.3,82.5l0.2,0.4 l0.4-0.2v-0.2l-0.2-0.3l-0.4,0.2V82.5z M39.6,83.4l0.1-0.1l-0.1-0.2l-0.1,0L39.6,83.4z M42.6,82l0.2-0.2l-0.2-0.3l-0.2,0.2L42.6,82z M42.1,82.6l0.1,0.2l0.2-0.2l0-0.2l0.2,0.2l0.2-0.1l0.1-0.2l-0.2-0.2l-0.5,0.4L42.1,82.6z M39.5,84.8H40l0.2-0.1l-0.1-0.2l-0.2,0.2 l-0.2-0.3l-0.3,0.2L39.5,84.8z M39.9,84l0.1,0.2l0.2-0.1l0.1,0.2l0.2-0.2V84l-0.1-0.2l-0.1-0.1l-0.5,0.2l0.1-0.2l-0.2-0.2l-0.3,0.2 l-0.2,0.2L39.1,84l-0.2,0.3l0.1,0.2l0.3-0.2l0.2-0.2l0.2-0.2L39.9,84v-0.2V84z M41.1,84.6L41,84.4l-0.3,0.2l0.1,0.1L41.1,84.6z M42,84.1l0.1-0.1l0-0.3L41.8,84l0,0.1L42,84.1z M42.4,83.7l-0.1-0.1l-0.1,0.1l0.1,0.1L42.4,83.7z M42.9,83.4L42.9,83.4l-0.3,0 l0.1,0.1L42.9,83.4z M43.3,83.1L43.3,83.1l0.2-0.2l-0.1-0.1l-0.2,0.2L43.3,83.1z M44.5,82.3l0-0.1l-0.2,0.2l0.1,0.1L44.5,82.3z M39.9,85.2l0.2,0.2l0.4-0.2l-0.1,0.2l0.1,0.1l0.2-0.2l-0.4-0.5L39.9,85L39.9,85.2z M42,84.6l0.2-0.2l-0.1-0.2l-0.2,0.1L42,84.6z M39.1,86l0.1,0.2c0.6,0.6,0.7,0.6,1.5,0.2l0.3-0.2l-0.1-0.2l-0.2,0l-0.2-0.3l-0.2,0.1l0,0.2l-0.1-0.2h-0.5l-0.2,0.1l-0.2,0.1V86z M44,84.3L44,84.3l-0.4,0.1l0.1,0.1L44,84.3z M43.9,85.3l0.2-0.1L43.9,85l-0.2,0.2L43.9,85.3z M44.6,84.8l0.1-0.1l-0.2-0.2l-0.1,0.1 L44.6,84.8z M42.2,86.7h0.4l0.4-0.3l-0.2-0.3l-0.8,0.4l-0.2-0.3l-0.3,0.2l-0.1,0.4l0.2,0.2l0.1-0.1l0.1-0.1l0.1-0.1l0.1-0.2 L42.2,86.7z M40.4,87.5l0.1,0.2l0.2,0.1l0.1,0.1l0.2,0.1l0.2-0.2l-0.4-0.6L40.4,87.5z M44.5,85.6l0.4-0.3l0,0.1l0.2-0.2L45,84.9 l-0.3,0.2l-0.1-0.2l-0.3,0.2L44.5,85.6z M43.8,86.6l0.5-0.4l-0.1-0.2l-0.6,0.4L43.8,86.6z M39.6,88.7l0.3,0.4l1.6-0.9l0.1,0.2 l0.4-0.1l0-0.2L41.9,88h-0.2c-0.6,0-1.3,0.1-1.8,0.4l-0.2,0.1L39.6,88.7z M41.7,87.7l0.2,0.2l0.2-0.2l0.1-0.2l0.1,0.2l0.3-0.1 l0.3-0.2l0.2-0.2l0.3-0.2l-0.1-0.2L43.1,87l-0.3,0.1l-0.3,0.1l-0.3,0.2L42,87.2l-0.3,0.2l-0.1-0.1l-0.4,0.3l0.1,0.1l0.4-0.3 L41.7,87.7z M43.8,87.1L44,87l-0.2-0.2l-0.2,0.1L43.8,87.1z M42.3,88.7l-0.1-0.1L42,88.8l0.1,0.1L42.3,88.7z M43.3,87.7L42.9,88v0.3 l0.8-0.4l0-0.2l-0.2-0.2l-0.2,0.1L43.3,87.7z M47.8,85.4l0.2-0.1l-0.2-0.2l-0.1,0.1L47.8,85.4z M43.1,88.6l0.2-0.1l-0.2-0.2L43,88.4 L43.1,88.6z M44.7,87.6l0.1-0.1l-0.2-0.2l-0.1,0.1L44.7,87.6z M43.5,88.7l0.1,0.2l0.7-0.4v-0.2l0-0.1l-0.1-0.1l-0.6,0.4L43.5,88.7z M44.7,88.4l0.2-0.2L44.7,88l-0.2,0.1L44.7,88.4z M48.3,86.2l-0.1-0.1l-0.3,0.2l0,0.1L48.3,86.2z M44.3,89.1l0.1-0.1l-0.1-0.2 l-0.4,0.3l0.1,0.1L44.3,89.1z M42.6,89.9l0,0.1l0.6-0.2l-0.1-0.2h-0.2l0.1-0.1L43,89.3l-0.1,0.1l0.1,0.1L42.6,89.9z M46.6,87.8 L46.6,87.8l0-0.3l-0.1,0.1L46.6,87.8z M45.4,88.6l0.1-0.1l-0.2-0.2l-0.1,0.1L45.4,88.6z M47,87.3l0.2,0.4l-0.1,0.2l0.1,0.2l0.2,0 l0.2-0.1l0.2-0.2l0.1-0.1l0-0.1v-0.1l-0.1-0.1l-0.3,0.2l0-0.2V87l0-0.2l-0.4,0.3L47,87.3z M44.2,89.6l0.2-0.2l-0.1-0.2l-0.2,0.1 L44.2,89.6z M48.9,86.8l0.2-0.1L49,86.5l-0.2,0.2L48.9,86.8z M44.4,89.9l0.2-0.2l-0.1-0.2l-0.2,0.1L44.4,89.9z M43.1,91L43.1,91 l-0.2,0.1l0,0.1L43.1,91z M45,89.4l0.1,0.2l0.3,0l0.2,0.3l0.3-0.2l0-0.2l0.2-0.2l0.1,0.1l0.2-0.2l0-0.3l0.7-0.6L47,88.2l-0.3,0.2 l-0.2,0l-0.3,0.2l-0.1,0.2L45.8,89l-0.3-0.1L45,89.4z M48.6,87.6l0.4-0.2l-0.2-0.2l-0.3,0.2L48.6,87.6z M49.3,87l-0.1-0.1l-0.3,0.2 l0.1,0.1L49.3,87z M43.7,90.5l0.2,0.2l0.2-0.2l0.2,0.4l0.4-0.2l0.1,0.2l0.2-0.2l-0.2-0.3l-0.2,0.1l-0.1-0.4l-0.2,0.2L44.2,90 l-0.2,0.1l0,0.3l-0.1-0.2l-0.2,0.2L43.7,90.5l-0.1,0.1l0.2,0.2l-0.2,0l-0.2,0.1l0,0.2l0.2,0.2l0.6-0.2l-0.3-0.2l0.1-0.1L43.7,90.5z M45.2,90.2l0.1,0.1l0.2-0.2l-0.1-0.2l-0.1,0L45.2,90.2z M49.4,87.4l0.1,0.2l0.2,0l0.2-0.1l-0.3-0.4l-0.2,0.2V87.4z M42.9,92.1 l0.2-0.1l0.2,0.3l0.6-0.5l-0.2-0.2l-0.2-0.1l-0.3,0.2l-0.2-0.4l-0.4,0.3L42.9,92.1z M47.9,88.9l0.1,0.2l0.2-0.1l0-0.2l-0.2-0.2 l-0.2,0.2l-0.2-0.4l-0.1,0.1l0,0.2l0.2,0.2l0.2-0.1L47.9,88.9z M45.4,90.8l0.1,0.1l0.2,0l0.9-0.6L46.5,90l-0.9,0.4l0.1,0.2 L45.4,90.8z M47.1,89.9l0.2-0.2l-0.2-0.2L47,89.6L47.1,89.9z M42,93.3l0,0.1l0.2,0l0.2,0l0.1,0l0.1-0.2l0-0.1l0.2,0.5l0.2-0.1 l0.1-0.1l0.1-0.1V93l0-0.1l0-0.2l-0.1-0.1l-0.8,0.6L42,93.3z M42.6,94l0.1-0.1l0-0.2l-0.1-0.1l-0.3,0L42.6,94z M43.6,93.7l0.2-0.1 l-0.2-0.2l-0.2,0.2L43.6,93.7z M45.6,92.4l0.2-0.1L45.6,92l-0.2,0.2L45.3,92l-0.2,0.2l0.2,0.1l0.1,0L45.6,92.4z M48.5,90.5l0.1-0.1 l-0.2-0.2l-0.2,0.1l0-0.2l0.1-0.1l0.1-0.2l0.1-0.1l-0.1,0.4l0.2,0.2h0.2l0.2-0.1l0.1-0.1l0.2-0.1l0.2-0.3l0.2-0.3l-0.2-0.2l-0.2,0.1 l-0.2,0l-0.2,0H49l-0.2,0.1l-0.2-0.3l-0.4,0.1l-0.4,0.2l-0.3,0.2L47.2,90l0.2,0.2l0.3-0.2l0.1,0.1l-0.4,0.3l0.1,0.1l0.1,0.1l0.1,0.1 l0.2,0l0.6-0.4l0,0.1L48.5,90.5z M44.3,92.8L44.2,93l0.2,0.3l0.7-0.5l0.1-0.2l-0.1-0.1H45l0.1-0.1l-0.2-0.3l0.3-0.2l-0.1-0.2 l0.2-0.2v-0.2l0-0.1L45,91.4l0.1,0.2l-0.4,0.1l-0.4-0.4l-0.2,0.1l-0.1,0.6l0.1,0.1l0.3,0l0.2,0l0.1,0h0.1l0.1,0.1l0.2,0.1l-0.2,0.1 l-0.1-0.2l-0.4,0.2V92.8z M49.9,89.8l-0.1-0.1l-0.2,0.1l0.1,0.1L49.9,89.8z M43.6,94l-0.1-0.1l-0.2,0.2l0.1,0.1L43.6,94z M45.1,93.8 l0.2-0.2l-0.1-0.2L45,93.6L45.1,93.8z M44.3,93.7L44,94l0.3,0.4l0.2,0l0.2-0.2L44.5,94l0.2-0.1v-0.2l0-0.1l0-0.1l-0.1-0.2l-0.2,0.2 V93.7z M46.2,92.6l0.2,0.3l-0.3,0.2l0,0.1l0.6-0.3l-0.1-0.4l0.2,0.3l0.4-0.3l-0.4-0.4l-0.4,0.2l-0.1-0.2l-0.2,0.2V92.6z M45.4,94.2 l0.1,0.2l0.2,0l0.2-0.1l0-0.2v-0.2l0,0l-0.2-0.1l-0.4,0.2V94.2z M44.9,95.4l0.6-0.4l-0.2-0.3L44.7,95L44.9,95.4z M46.7,94l0.2,0.3 l0.9-0.6l-0.2-0.3l-0.3,0.2L47,93.5l-0.4,0.3L46.7,94z M45.6,95.8l-0.1-0.1l-0.1,0.1l0.1,0.1L45.6,95.8z M46.8,95l-0.1-0.1L46.7,95 l0,0.1L46.8,95z M47.8,94.3L47.8,94.3l-0.2,0l0,0.1L47.8,94.3z M47.4,95.1l0.2-0.1l-0.2-0.3l-0.2,0.2L47.4,95.1z M47.1,95.4 L47.1,95.4l0.3,0l-0.1-0.2l-0.1,0.1L47.1,95.4z M47.9,95.2l0.2-0.2l-0.2-0.3l-0.2,0.1L47.9,95.2z M44.2,99l0.2-0.1l-0.1-0.2 l-0.2,0.2L44.2,99z M46.1,97.9l0.3-0.2l-0.1-0.2L46,97.7l-0.1-0.1l-0.2,0.1l0.1,0.2l0.1-0.1l0-0.2L46.1,97.9z M48.4,96.5l0.2-0.2 l-0.2-0.2l-0.2,0.1L48.4,96.5z M49.8,95.8l0.3-0.2l-0.1-0.1l0-0.1l-0.1,0l-0.1,0l-0.2,0.2L49.8,95.8z M49.4,96l0.1,0.2l0.2-0.4 l-0.1-0.2l-0.2,0.2V96z M48.1,97.4l0.2-0.1l-0.2-0.2L48,97.2L48.1,97.4z M50.3,95.6l0.2,0.2l0.3-0.2l0-0.2l-0.2-0.1l-0.2,0.1 L50.3,95.6z M44.8,99.9l0.2-0.1l-0.2-0.2l-0.2,0.1L44.8,99.9z M46.4,99l0.1,0l-0.1-0.2l-0.1,0.1L46.4,99z M48.7,98.1L48.7,98.1 l-0.4,0.1l0.1,0.1L48.7,98.1z M43.9,100.8l0.2,0.2h0.4l0.1-0.1l0.2,0l0.3-0.2l0.2-0.2l-0.1-0.1c-0.3-0.3-0.7-0.1-1,0.2l-0.2,0.2 L43.9,100.8z M47.2,99.3L47.2,99.3l-0.3,0l0,0.1L47.2,99.3z M49.3,97.9l-0.1-0.1l-0.1,0.1l0,0.1L49.3,97.9z M50.7,97.1L50.6,97 l-0.2,0.2l0.1,0.1L50.7,97.1z M46.5,101l0.3-0.2l0.1-0.2l-0.2-0.2l-0.4,0.3L46.5,101z M48.3,99.6L48.3,99.6l-0.3,0l0.1,0.1 L48.3,99.6z M48.7,99.5l0.2-0.2l-0.1-0.2l-0.2,0.1L48.7,99.5z M48.2,100l0-0.1l-0.4,0.2l0.1,0.1L48.2,100z M50.1,98.7l0.4-0.2 L50.1,98l-0.3,0.2L50.1,98.7z M50.7,98.2l-0.1,0.2l0,0.1l0.5-0.4l0-0.3l-0.4,0.1L50.7,98.2z M51.6,97.6l-0.2,0.3l0.1,0.1l0.7-0.3 l-0.4-0.6l-0.3,0.2L51.6,97.6z M52.4,97.6l-0.1,0.2l0.1,0.1l0.4-0.4l-0.1-0.2l-0.2,0.1V97.6z M49.2,99.6l0.2,0.3l0.5-0.3l0-0.2 l0-0.1l-0.1-0.1l-0.1-0.1l-0.5,0.3L49.2,99.6z M46.6,101.9l0.3-0.2l-0.2-0.2l-0.3,0.2L46.6,101.9z M48.4,100.8l0.3-0.2l-0.2-0.3 l-0.3,0.2L48.4,100.8z M61,91.2l0.2-0.1l-0.1-0.2L60.9,91L61,91.2z M51.4,99.1l0.1,0l-0.2-0.3l-0.1,0.1L51.4,99.1z M57.3,93.4 l0.3,0.2l0.4-0.2l0.2,0l0.1-0.1l0.1-0.4l-0.2-0.2l-0.5,0.4l-0.1-0.2l-0.2,0l-0.2,0.2L57.3,93.4z M52.2,98.6l0.2-0.1l0-0.1l0-0.1 l0-0.1l0-0.1l-0.3,0.2L52.2,98.6z M52.8,98.2l0.2-0.2l-0.2-0.3l-0.2,0.2L52.8,98.2z M47.3,102l0.6-0.4l-0.2-0.3l-0.7,0.4L47.3,102z M48.6,101.1l0.2-0.1l-0.2-0.2l-0.2,0.2L48.6,101.1z M57.2,94.2l0.1-0.1l-0.2-0.2L57.1,94L57.2,94.2z M61.1,91.6l0.1,0.1l0.3-0.2 l-0.1-0.2l-0.2,0.2L61.1,91.6z M52.5,98.7l0.1,0.1l0.2-0.2l-0.1-0.2l-0.1,0.1L52.5,98.7z M57.9,94.1l-0.1-0.1l-0.2,0.2l0.1,0.1 L57.9,94.1z M61.2,91.9L61.2,91.9l-0.3,0l0.1,0.1L61.2,91.9z M48.4,102.1l0.3-0.2l0-0.1h-0.2l-0.2,0.1L48.4,102.1z M58.2,94.7 l0.2-0.1l-0.1-0.2L58,94.4L58.2,94.7z M51.6,100.2l0.2,0.2l0.3-0.2l0-0.2L52,99.8l-0.3,0.2L51.6,100.2z M56.7,94.8l0,0.2l0,0.2 l0.1,0.1l0.1,0.2l0.2-0.1l-0.1,0.2l0.1,0.2l0.3-0.2l-0.1-0.2l0.2-0.1l0.3-0.5l-0.1-0.2l-0.8,0.4v-0.1l0.1-0.1v-0.1l-0.1-0.1 l-0.3,0.2L56.7,94.8z M58.6,94.1l0.2,0.3l0.3-0.2v-0.1L59,93.8l-0.1-0.1l-0.3,0.2L58.6,94.1z M53,97.3l-0.2,0.4l0.2,0.2l0.2-0.1 l0-0.2l1.2-0.8v-0.2l0-0.1l0-0.1l-0.1-0.2l-0.4,0.2l-0.4,0.2l-0.1,0.1l-0.3,0.3L53,97.3z M60.1,92.6l0.2,0.2h0.2L60.2,93l0,0.2v0.2 l0.1,0.1l0.1,0l0.1-0.1l0.2-0.1l0.1-0.1l0.1-0.1l-0.2-0.2l0.5-0.2l-0.4-0.6h-0.2l-0.6,0.4L60.1,92.6L60,92.5l-0.2,0.1l0.1,0.1 L60.1,92.6z M53.5,99.8l0.1-0.1l0-0.2l-0.2-0.3l-0.2,0.1L53.5,99.8z M61.2,93.3l0.2-0.2l-0.2-0.2l-0.2,0.2L61.2,93.3z M61.9,91.3 l-0.2,0.3l0.4,0.6l-0.2,0l-0.2,0.1v0.5l0.2,0.3l0.2,0.1l0.2-0.2l-0.1-0.2l0.2-0.2l-0.2-1.1l0.4-0.3l0.1-0.4l-0.2-0.3l-0.3,0.2 l0.2,0.2L61.9,91.3z M64.7,91.2l0.1-0.1l-0.2-0.2L64.4,91l0,0.1L64.7,91.2z M65,90.7l0.1,0.1l0.2,0l0.4-0.4l-0.1-0.2l-0.2,0.1 l-0.1,0.1l-0.1,0.1L65,90.7z M48.9,102.9l0.2,0.1l0.1,0l0-0.2l-0.2-0.2l-0.5,0.2L48.9,102.9z M51.3,101.2l-0.1-0.1l-0.2,0.2l0.1,0.1 L51.3,101.2z M52.5,100.3l0.1,0.2l0.6-0.4l0-0.2l-0.1-0.1c-0.5,0-0.1-0.1-0.5,0.2l-0.2,0.1L52.5,100.3z M59.5,94.4v0.2l0.2,0.3 l0.8-0.5l-0.2-0.6L59.5,94.4z M51.9,101.1l0.4-0.4l-0.1-0.2l-0.5,0.3L51.9,101.1z M50.6,101.5l0.2,0.6l0.3-0.2l0-0.1l0-0.1l0-0.1 l0-0.1l-0.2-0.3l-0.1,0.1l-0.1,0l0,0.1L50.6,101.5z M63.6,92.8l0.3-0.2l-0.2-0.3l-0.3,0.2L63.6,92.8z M66.3,90.7l0.2,0l0.2-0.1 l0-0.2l-0.2-0.4l-0.4,0.3L66.3,90.7z M51.5,101.9l0.1-0.1l-0.2-0.2l-0.1,0L51.5,101.9z M58.5,96l0.8-0.5l-0.2-0.3l-0.8,0.4L58.5,96z M64.1,92.4l0.2,0.1l0.3-0.2l-0.2-0.2l-0.2,0.1l-0.2-0.3L63.8,92L64.1,92.4z M64.9,91.5l0.1,0.2l0.2-0.1l0-0.2l-0.2-0.2l-0.2,0.1 L64.9,91.5z M53.2,101l0.3-0.2l-0.2-0.2l-0.3,0.2L53.2,101z M51.3,102.6L51.3,102.6l0.1-0.3l0-0.1l-0.2,0.1L51.3,102.6z M54.2,100.5 l0.3-0.2l-0.1-0.2l-0.4,0.2L54.2,100.5z M60.9,95l0.1,0l0-0.2L61,94.7l-0.2-0.1l-0.1,0.1L60.9,95z M62.7,93.7l0.2,0l0.1-0.1l0-0.2 l0-0.1l-0.1-0.1l-0.1-0.2l-0.3,0.2L62.7,93.7z M60.1,95.2l0.2,0.3l0.3-0.2v-0.1l0-0.2l0-0.1l-0.1-0.1l-0.3,0.2L60.1,95.2z M61.6,94.7l0.2-0.1l0-0.2l-0.1-0.1l-0.3,0.2L61.6,94.7z M63.4,93.5l0.2-0.2l-0.1-0.2l-0.2,0.1L63.4,93.5z M50.3,103.3l0.1,0.1h0.2 l0.2-0.1l-0.1-0.4L50.3,103.3z M59.5,96l0.2,0.2l0.2-0.1l0-0.1l-0.1-0.2l0-0.1l-0.2,0.2L59.5,96z M66.3,91.6L66.3,91.6l0.5-0.2 l-0.2-0.2l-0.3,0.2L66.3,91.6l-0.1-0.1l-0.2,0.2l0.1,0.1L66.3,91.6z M62.9,94.3l0.2-0.2l0-0.2L63,93.8L62.7,94L62.9,94.3z M65.2,92.7l0.2-0.1l-0.2-0.2l-0.2,0.2L65.2,92.7z M54.3,101.3l0.2-0.2l-0.2-0.3l-0.2,0.1L54.3,101.3z M62.4,94.8l0.2-0.1l-0.2-0.3 l-0.2,0.1L62.4,94.8z M67.2,91.7l0.2-0.1l-0.2-0.2L67,91.5L67.2,91.7z M57.8,98.1l0.2-0.1l-0.2-0.2l-0.2,0.2L57.8,98.1z M57.9,97.3 l0.2,0.5l0.4,0l0.1,0.1l0.1,0.1h0.1l0.1,0v-0.2l-0.2-0.3l-0.1-0.1l0.2-0.2l0.2,0.2l0.3-0.2l0.1,0.2l0.3-0.2l-0.3-0.4L59.1,97 l-0.4,0.1l-0.2,0h-0.1L58.2,97l-0.2,0.2L57.9,97.3z M64.6,93.7l0.3-0.2l-0.1-0.2l-0.2,0l-0.2,0.2L64.6,93.7z M55.3,99.9l0.2-0.1 l-0.1-0.2l-0.2,0.2L55.3,99.9z M55.8,100l0.2-0.2l0-0.2l-0.2-0.4l-0.2,0l-0.2,0.2L55.8,100z M67.9,91.4l0.2,0.2l0.4-0.3L68.2,91 L68,91.2V91l-0.1-0.2L67.6,91l0.2,0.3l0.1,0L67.9,91.4z M65.4,92.2l0.5,0.6L65.7,93l0.2,0.3l0.2,0l0.3-0.2l0.1-0.1l0.1-0.2l-0.2-0.3 l0.3-0.2l0-0.2l-0.2-0.2l-0.2,0L66.2,92L66.1,92l-0.2,0h-0.2l-0.1,0l-0.2,0.2L65.4,92.2z M71.4,90.3L71.4,90.3l0.1,0.2l0,0l0.2,0 l0.6-0.4V90l-0.1-0.2l-0.5,0.1l-0.2,0.1l-0.2,0.1L71.4,90.3L71.2,90l-0.4,0l-0.3,0.1l-0.3,0.2l-0.3,0.2l0,0.2l0.1,0.2l0.8-0.5 l0.1,0.2L71.4,90.3z M56,101l0.2-0.2l-0.1-0.2l-0.3,0.2L56,101z M56.8,100.3l0.1,0.1l0.2,0l0.2-0.1l0-0.2l-0.1-0.2L56.8,100.3z M70.3,91.7l0.1,0.2l0.4-0.2l-0.2-0.3l-0.2,0.1L70.3,91.7z M72.6,90.1l0.4,0.1l0.3-0.2l-0.2-0.3h-0.2l-0.2,0.1l-0.1,0l-0.2,0.1 L72.6,90.1z M37.6,82.1l0.1-0.1v-0.3l-0.2,0.1L37.6,82.1z M50.6,87.3l-0.1-0.4l0.4,0.1l0,0.2l0.2,0.2l-0.4,0.2V87.3z M50,88.3l0-0.1 l0.2,0.1L50,88.3z M64.1,90.3L64,90.2l0.2,0L64.1,90.3z M63,91L63,91L63,91L63,91z M76.6,66.3l0.1,0.1l0.1-0.3l-0.1,0L76.6,66.3z M76.3,67.1l0.2,0l0.1-0.2l-0.3-0.1L76.3,67.1z M75.9,67.2l-0.1,0.4l0.6,0l0.1-0.4l-0.4-0.1L75.9,67.2z M85.9,73.7l0.5,0.1l0-0.1 l-0.1-0.2L86,73.4L85.9,73.7z M83.7,73.3l0-0.1l-0.2,0v0.1L83.7,73.3z M81.9,72.9L81.9,72.9l-0.2,0.2v0.1l0,0.1l0,0.1v0.1l0,0.1h0.4 L82.1,74l0.6,0l0.1-0.4l-0.2,0l0.1-0.3l0.6,0.2l0.1-0.3l-0.2-0.1l0.1-0.2l-0.6-0.2v0.6l-0.3-0.4l-0.2,0L81.9,72.9z M83.8,73.9 l0.4,0.1l0.1-0.4L84,73.5L83.8,73.9z M83.4,73.8l0,0.2l0.3,0.1l0-0.3l-0.1,0L83.4,73.8z M82.9,73.7l-0.1,0.2l0.3,0.1l0.2-0.1 l0.1-0.3l-0.2-0.1L82.9,73.7z M80.5,73.3l0.4,0.2v-0.6l-0.2-0.1L80.5,73.3z M79.3,73.2l0.5,0.3l0.1-0.1l0.1-0.2l0-0.1L79.5,73 L79.3,73.2z M75.1,68l0.1-0.1l-0.2,0L75.1,68L75.1,68z M80.4,74.5L80.4,75l0.2,0.1l0.2-0.1l0.1-0.4l-0.2-0.1L80.4,74.5z M75.3,75.2 l0.1-0.2L75.1,75l-0.1,0.2L75.3,75.2z M73.8,69.5l0-0.2l-0.2,0v0.1L73.8,69.5z M82.5,76.4l0.2,0l0-0.3h-0.1L82.5,76.4z M76.8,75.5 l0.2,0.1l0.1-0.3l-0.3,0L76.8,75.5z M71.8,74v-0.1l0.2,0l0-0.2h-0.1l-0.1,0.1l-0.2-0.1l0,0.1L71.8,74z M77.4,75.7l0,0.8l0.4,0.1 l0.2-0.6l-0.4-0.1l0.1-0.3l-0.2-0.1L77.4,75.7z M72.7,73.9l-0.1,0.3L72.4,74l0,0.2v0.4l0.1,0.2h0.1l0.2-0.6l0.5,0.2l0.1-0.1l0-0.1 l0.1-0.1v-0.1l0.1,0.2l0.3,0.1l0.5-0.2l0.1-0.2l-0.2-0.1l-0.4-0.1l-0.2,0l-0.1,0.3L73,73.8l0,0.2L72.7,73.9z M76.3,77.9l0.3,0.1 l0.1-0.2l-0.3-0.1L76.3,77.9z M76.3,78.5v-0.2h-0.1l0,0.1L76.3,78.5z M74.4,76.5H75l0-0.3l-0.4-0.1L74.4,76.5z M71.5,76l0.3,0 l0.1-0.2l-0.3-0.1L71.5,76z M72.3,76l0.2,0.1l0.1-0.3l-0.3-0.1L72.3,76z M73.4,76.1l-0.1,0.3l0.4,0.1l0.1-0.4L73.6,76L73.4,76.1z M73.6,72.8l0.1,0l0.1-0.3l-0.2,0L73.6,72.8z M70.9,76.1l-0.1,0.3h0.6l0.1-0.3H70.9z M71.2,76.7l0.3,0.1l0-0.3l-0.2,0L71.2,76.7z M76.4,80.1l-0.1,0.4l0.1,0.2l0.5,0l0.1-0.3l0.2,0.1l0.1-0.2l-0.2-0.1l-0.2,0.1l0,0.1l-0.2-0.3L76.6,80L76.4,80.1z M71.2,77.9l0.3,0 l0.1-0.2l-0.3-0.1L71.2,77.9z M69.1,77.5l0.2,0l0.1-0.1l0,0l0-0.1l0-0.1l-0.1,0l0-0.2l-0.2-0.1l-0.1,0.4h0.1L69.1,77.5z M70.6,77.7 l-0.2,0.5l0.2,0l0-0.2l0.3,0l0.1-0.2l-0.1-0.2l-0.1,0h-0.1L70.6,77.7z M71.8,81.7l-0.2,1h0.2l0.2-0.2l0.1-0.1l0.1-0.2l-0.3-0.1 l0.1-0.3l0.3,0.1l0.1-0.3H71.8z M72,78.9l0,0.1l0.4,0.1l0.1-0.3l-0.3,0L72,78.9z M67.4,77.9l0.3,0.1l0.1-0.3l-0.3-0.1L67.4,77.9z M67.2,77.6l0.2,0l0.1-0.3l-0.2,0L67.2,77.6z M68,77.8l0.3,0.1l0.1-0.3l-0.3-0.1L68,77.8z M70.7,80.7l0.3,0.1l0.1-0.3l-0.3-0.1 L70.7,80.7z M73.2,81.8l0.3,0.1l0.1-0.3h0l0.1-0.3l-0.3-0.1l-0.1,0.3L73.2,81.8z M72.2,81.1L72,81.6l0.7,0.2l0.3-0.6L72.4,81 L72.2,81.1z M69,80.9l0-0.2l-0.3-0.1l0,0.2L69,80.9z M67,80.7l0.5,0.2l0.1-0.4l0.3,0.1l0-0.2l-0.3-0.1l0,0.2l-0.5-0.1L67,80.7z M73.4,82.3l0.1-0.2l-0.4-0.1v0.2L73.4,82.3z M74.3,82.8L74.3,83v0.2l0.1,0.2l0.2,0l0.4-0.6l0.3,0.1l0.1-0.3l-0.3-0.1l0.2-0.1 l0.1-0.3l-0.4-0.5l-1-0.3l-0.1,0.3l0.1,0.2l0.4,0.1l0.2-0.1l-0.1,0.3l0.5,0.7H74.3z M72.9,82.7l0,0.2l0.3,0.1l0.1-0.3l-0.2,0 L72.9,82.7z M69.5,85.3l0.5,0.1l0.1-0.1L70,85.1l-0.1-0.1L69.6,85L69.5,85.3z M81.9,72.5l0.1-0.2h-0.2l0,0.1L81.9,72.5l-0.1,0.3H82 l0.2-0.1l0-0.1L81.9,72.5z M51.4,85l-0.1,0c-0.4,0-0.7,1.1-0.6,1.5l0.1,0.1l1.1-0.1l-0.1,0.4c-0.3,0.7-0.6,1.3-0.8,2l0,0.4h-0.4 l-0.1,0.2l-0.1,0.2l-0.1,0.2L50,90.1l-0.4,0.1l-0.4,0.1L49,90.3l-0.1,0.1l-0.2,0l-0.1,0.1c-0.3,0.1-0.5,0.6-0.5,0.8l0,0.2v0.2h-0.2 v0.4c0.2,0.5-0.1,0.4,0.3,0.7l0.1,0.2l0.2-0.1l0.1,0l0.2,0.1l0,0.1l0.1,0.1l0.1,0.1l0.1,0.1l0.2,0.2l0.3,0.1l0.3,0.1 c0.8,0.2,1.7,0.1,2.5,0.2l0.6-0.1l0.4-0.1v-0.1h0.2l0.2,0h0.1l0.1-0.1l0,0.3l-0.7,0.3l0.1,0.2h-0.2L53,94.8l0.2,0.4h0.2l0.4-0.1 L54,95v-0.5l0.3,0l-0.1,0.1l0.3,0.4l0.1-0.1l0.4-0.8l-0.2-0.2l-0.2,0.1l-0.2-0.3l0.1-0.1l0.2-0.1l0.1-0.1l0.1-0.2l0.4,0l0.7-0.1 l0.4-0.1l0,0l0,0.2v0.2l0,0.1l0.1,0.1l0.2-0.2l0,0.2l0.1,0.2l0.5-0.3l-0.4-0.6l-0.3,0.2l-0.1-0.2l0.4-0.1l0.4-0.2l0.4-0.2l0.4-0.2 l0.1,0l0.1,0v0l0.1-0.1v-0.2l0,0l0-0.3c0.1-1.2-0.2-1.6-0.7-2.7L57.4,88h-0.2v-0.5c0-0.9-0.4-1.9-0.5-2.9l-0.1-0.5h0.1l0,0 c0.3-0.3,0.3-1.5,0.2-1.9l-0.1-0.3l-0.1-0.4c-0.1-0.4-0.4-1-0.8-1.1l-0.2-0.1l0.1-2.7c1.1-1.5,0.2-8.8,0.2-10.5v-1l0.6,0l0.8,0 c0.5,0,0.9-0.1,1.3-0.3l0.1-0.1L58.8,65c-0.1-0.7-0.3-1.4-0.1-2l0.2-0.4v0.7l0.2,0.3h0.1v0.2l0.3,0.4l0.3,0.3l0.1,0.2l0.4,0.2 l0.3,0.1l0.2,0.6l0.2,0.6l0.2,0.6c0.6,2,0.7,4,0.9,6.1l0.1,1.3l0.1,1.3h-0.2v1.9l0,0.2l0,0.2L62,78.1l0,0.2l-0.1,0.2l-0.1,0.2 l-0.1,0.2L61.5,79V80l0.1,0.1l0.1,0.1l-0.2,0v0.3l0.1,0.1l0.2,0l0-0.2l0.1,0.2c0.9,2.7-1.8,9.9,3.8,7.5l0.6-0.3l0.1-0.8l0.1-0.7 c0.2-1,0.6-1.9,0.6-2.9l0-0.4l0-0.4v-0.4l-0.1-0.1L67,82l-0.1-0.2l-0.1-0.3L66.6,81l-0.1-0.4l0.6-0.3v-0.1h0l0.1-0.3l-0.1,0L67,76.2 L66.8,76l-0.1-0.1l-0.2-0.1h-0.2l0.1-0.8c0.6-3.3,0-6.6-0.1-9.9v-1.6h0.2v-0.1h0.1l0.1-0.2c0.5-1.4,0.3-3.5,0.4-5l0-0.6l0.4,0 c0.8-0.1,1.7-0.7,2.3-1.2v-0.1h0.1l0-0.3c0.1-0.2,0-0.6,0.2-0.7v-0.2h0.1l0.4-0.4v-3.7l0.1-1.9v-1.9l0.1-1.9v-1.9l0-1.9v-1.9 l-0.1-0.2l-0.2-0.4l-0.2-0.4l-0.2-0.5l-0.3-1.1l-0.1-0.4v-0.3l0.1-0.1l0-0.4l-0.1-0.6l-0.1-0.6c-0.5-2.2-2.2-7.1-4.2-8.4l-0.2-0.1 l-0.2-0.5h-0.2c-1.3-0.1-3.5-1.6-4.3-2.5H60v-0.2l0.1-0.1v-0.1h0.2l0.1-0.2c0.7-0.9,1.2-2.3,1.3-3.4l0-0.4l0.4,0l0.3,0h0.1l0.2-0.1 l0.1-0.1l0.2-0.1v-0.8L62.7,17l-0.4-0.4l-0.4-0.4l-0.3-0.4l-0.3-0.4L61,14.9c-1-1.2-1.8-1.5-3.3-1.8l-0.8,0l-0.8,0v0.4l-0.4,0 c-1.8,0.2-3.1,2.3-2.7,4l0,0.4h-0.6l-0.2,0l-0.1,0l-0.2,0l-0.1,0.1v0.5l0,0.1l0,0.2l0.2,0.2l0.2,0.3h0.3l-0.1,0.4 c-0.1,0.8-0.6,1.8-0.7,2.6v0.4h-0.2l-0.1,0.2l0,0.2l0,0.2l0,0.2v0.4l0,0.4l-0.3,0c-1.4,0.3-3,1.4-4,2.5v0.1H47 c-1.8,0.6-2.2,6.3-4,7.7l-0.2,0.1v0.4l0.3,0.1l0.3,0.2l0.3,0.1H44l-0.2,0.4l-0.2,0.4l-0.2,0.4c-0.3,0.8-0.4,1-0.5,1.8l-0.1,0.8 l-0.1,0.8l0,0.9v1l0.2,0.2l0.2,0.3l0.2,0.3l0.2,0.3l0.2,0.6l0.1,0.4c0.7,2.5-0.3,6.8,1.1,8.8l0.2,0.2h0.2v0.2 c0.8,0.8,2.2,1.4,3.2,0.6l0.2-0.2l-0.1-0.6h0.1l0.1,0.3c1.1,2.9,0.7,7.6,0.7,10.5l0,1.2l0.4,0.2v1.3c0.1,2.8-0.8,10.8,1.5,13.2v0.6 h-0.3l-0.2,0.2l0.1,3.7L51.4,85z"></path> </svg> 